<svg xmlns="http://www.w3.org/2000/svg" xmlns:xlink="http://www.w3.org/1999/xlink" viewBox="0 0 182.83 216.32"><defs><style>.cls-1{fill:url(#linear-gradient);}.cls-2{fill:url(#linear-gradient-2);}.cls-3{fill:url(#linear-gradient-3);}</style><linearGradient id="linear-gradient" x1="93.44" y1="192.66" x2="180.2" y2="142.57" gradientUnits="userSpaceOnUse"><stop offset="0" stop-color="#603813"/><stop offset="0.06" stop-color="#fbb03b"/><stop offset="0.49" stop-color="#ffe07f"/><stop offset="0.94" stop-color="#fbb03b"/><stop offset="1" stop-color="#754c24"/></linearGradient><linearGradient id="linear-gradient-2" x1="2.63" y1="74.28" x2="89.39" y2="24.19" gradientUnits="userSpaceOnUse"><stop offset="0" stop-color="#603813"/><stop offset="0.04" stop-color="#fbb03b"/><stop offset="0.49" stop-color="#ffe07f"/><stop offset="0.98" stop-color="#fbb03b"/><stop offset="1" stop-color="#754c24"/></linearGradient><linearGradient id="linear-gradient-3" x1="-5.42" y1="164.12" x2="188.36" y2="52.24" gradientUnits="userSpaceOnUse"><stop offset="0" stop-color="#603813"/><stop offset="0.2" stop-color="#fbb03b"/><stop offset="0.49" stop-color="#ffe07f"/><stop offset="0.78" stop-color="#fbb03b"/><stop offset="1" stop-color="#754c24"/></linearGradient></defs><g id="Layer_2" data-name="Layer 2"><g id="Layer_1-2" data-name="Layer 1"><path class="cls-1" d="M126.78,196.23l.32-66.69c-3,.78-6.34,1.5-10,2.08s-7,.94-10.13,1.13l.16,2.25L107,216.16l22.18.16a56.27,56.27,0,0,0,32.46-11.57,55.28,55.28,0,0,0,20.9-48.86c-2.56-24.82-21.35-38.13-24.11-40a50,50,0,0,1-21.7,10.92c3.8,1,13.23,4.18,19.61,13.18,9.48,13.38,7.72,33.34-3.7,45.32C143.08,195.35,130.21,196.13,126.78,196.23Z"/><path class="cls-2" d="M56.05,20.61l-.32,66.7c3-.79,6.34-1.51,10-2.09s7-.93,10.13-1.13l-.16-2.25L75.82.68,53.64.52A56.27,56.27,0,0,0,21.18,12.09,55.29,55.29,0,0,0,.28,61c2.56,24.82,21.35,38.13,24.11,40A49.85,49.85,0,0,1,46.09,90c-3.8-1-13.23-4.18-19.61-13.18C17,63.49,18.76,43.52,30.18,31.54,39.75,21.49,52.62,20.71,56.05,20.61Z"/><path class="cls-3" d="M106.85,82.12q.16-40.89.32-81.8L132.24,0A57.11,57.11,0,0,1,157,9.32c4.5,3,17,12.52,22.18,29.89a55.56,55.56,0,0,1-10.93,51.43c-7.94,9.14-17.08,12.8-27.64,17-8.37,3.36-15.84,5.14-44,8.68-37.49,4.71-40.95,3.65-49.83,8.35-5.56,3-24.32,12.89-26.67,32.15-1.35,11,2.73,24.67,13.82,32.78,9.79,7.16,20.52,6.7,23.78,6.43q-.31-28.77-.64-57.53a40.48,40.48,0,0,1,19.61-5.9q.15,41.36.32,82.72l-31.39-.11c-4.8-1.06-21.44-5.34-33.22-21.11a56.12,56.12,0,0,1-7.71-52.07c9.28-25.69,35.29-34.37,43.07-37,6.86-2.29,13.89-3.24,28-5.15,16.94-2.29,19.86-1.24,34.4-3.53,16.47-2.6,24.88-4,33.42-10,3.64-2.53,13.18-9.17,17-21.53.53-1.69,7-23.08-7.39-37-10.89-10.47-25.66-8.95-28-8.67l1,58.5a35.83,35.83,0,0,1-19.29,4.33Z"/></g></g></svg>