<?xml version="1.0" encoding="utf-8"?>
<!-- Generator: Adobe Illustrator 25.4.1, SVG Export Plug-In . SVG Version: 6.00 Build 0)  -->
<svg version="1.1" id="icon" xmlns="http://www.w3.org/2000/svg" xmlns:xlink="http://www.w3.org/1999/xlink" x="0px" y="0px"
	 viewBox="0 0 32 32" style="enable-background:new 0 0 32 32;" xml:space="preserve">
<style type="text/css">
	.st0{fill:#FFFFFF;}
	.st1{fill:none;}
</style>
<path class="st0" d="M6,21v-1H4v1c0,3.9,3.1,7,7,7h3v-2h-3C8.2,26,6,23.8,6,21z"/>
<path class="st0" d="M24,11v1h2v-1c0-3.9-3.1-7-7-7h-3v2h3C21.8,6,24,8.2,24,11z"/>
<path class="st0" d="M11,11H5c-1.7,0-3,1.3-3,3v2h2v-2c0-0.6,0.4-1,1-1h6c0.6,0,1,0.4,1,1v2h2v-2C14,12.3,12.7,11,11,11z"/>
<path class="st0" d="M8,10c2.2,0,4-1.8,4-4s-1.8-4-4-4S4,3.8,4,6S5.8,10,8,10z M8,4c1.1,0,2,0.9,2,2S9.1,8,8,8S6,7.1,6,6S6.9,4,8,4z
	"/>
<path class="st0" d="M27,25h-6c-1.7,0-3,1.3-3,3v2h2v-2c0-0.6,0.4-1,1-1h6c0.6,0,1,0.4,1,1v2h2v-2C30,26.3,28.7,25,27,25z"/>
<path class="st0" d="M20,20c0,2.2,1.8,4,4,4s4-1.8,4-4s-1.8-4-4-4S20,17.8,20,20z M26,20c0,1.1-0.9,2-2,2s-2-0.9-2-2s0.9-2,2-2
	S26,18.9,26,20z"/>
<rect id="_Transparent_Rectangle_" class="st1" width="32" height="32"/>
</svg>
