<?xml version="1.0" encoding="utf-8"?>
<!-- Generator: Adobe Illustrator 25.4.1, SVG Export Plug-In . SVG Version: 6.00 Build 0)  -->
<svg version="1.1" id="Layer_1" xmlns="http://www.w3.org/2000/svg" xmlns:xlink="http://www.w3.org/1999/xlink" x="0px" y="0px"
	 viewBox="0 0 496.1 496.1" style="enable-background:new 0 0 496.1 496.1;" xml:space="preserve">
<style type="text/css">
	.st0{fill:#FFFFFF;}
	.st1{fill:#F4B459;}
	.st2{fill:#484848;}
</style>
<path class="st0" d="M248.1,494.1L248.1,494.1c-135.9,0-246-110.1-246-246l0,0c0-135.9,110.1-246,246-246l0,0
	c135.9,0,246,110.1,246,246l0,0C494.1,383.9,383.9,494.1,248.1,494.1z"/>
<g>
	<path class="st1" d="M392.7,370.8C222.9,451.6,117.6,384,50.1,342.9c-4.2-2.6-11.3,0.6-5.1,7.7c22.5,27.2,96.1,92.9,192.2,92.9
		c96.2,0,153.4-52.5,160.6-61.6C404.9,372.8,399.9,367.8,392.7,370.8z M440.4,344.5c-4.6-5.9-27.7-7-42.3-5.3
		c-14.6,1.7-36.5,10.7-34.6,16c1,2,3,1.1,13,0.2c10.1-1,38.2-4.6,44.1,3.1c5.9,7.7-9,44.5-11.7,50.5c-2.6,5.9,1,7.5,5.9,3.5
		c4.9-4,13.7-14.2,19.6-28.7C440.2,369.3,443.8,349,440.4,344.5z"/>
	<path class="st2" d="M349.7,242.6V107.3c0-23.2-22.5-75.7-103.3-75.7c-80.8,0-123.8,50.5-123.8,96l67.5,6c0,0,15-45.5,49.9-45.5
		s32.5,28.3,32.5,34.4v29.4c-44.7,1.5-155.8,14.3-155.8,107.9c0,100.7,127.1,104.9,168.8,39.8c1.6,2.6,3.4,5.2,5.7,7.6
		c15.3,16.1,35.8,35.3,35.8,35.3l52.1-51.5C379.3,291.1,349.7,267.8,349.7,242.6z M195.3,247.3c0-43.2,46.3-52,77.4-53v37.2
		C272.7,305.2,195.3,294.1,195.3,247.3z"/>
</g>
</svg>
