<?xml version="1.0" encoding="utf-8"?>
<!-- Generator: Adobe Illustrator 25.4.1, SVG Export Plug-In . SVG Version: 6.00 Build 0)  -->
<svg version="1.1" id="Capa_1" xmlns="http://www.w3.org/2000/svg" xmlns:xlink="http://www.w3.org/1999/xlink" x="0px" y="0px"
	 viewBox="0 0 495.6 495.6" style="enable-background:new 0 0 495.6 495.6;" xml:space="preserve">
<style type="text/css">
	.st0{fill:#FFFFFF;}
</style>
<g>
	<g>
		<g>
			<path class="st0" d="M441.9,0H53.8C24.2,0,0,24.2,0,53.8v388.1c0,29.6,24.2,53.8,53.7,53.8h388.1c29.6,0,53.7-24.2,53.7-53.8
				V53.8C495.6,24.2,471.4,0,441.9,0z M427.9,44.4c14,0,25.4,11.3,25.4,25.4S442,95.1,427.9,95.1c-14,0-25.4-11.3-25.4-25.4
				S413.9,44.4,427.9,44.4z M348.8,44.4c14,0,25.4,11.3,25.4,25.4s-11.4,25.4-25.4,25.4s-25.4-11.3-25.4-25.4S334.8,44.4,348.8,44.4
				z M455,449.5H40.7v-318H455V449.5z"/>
			<rect x="128.1" y="317" class="st0" width="79.2" height="79.2"/>
			<rect x="291.6" y="317" class="st0" width="79.3" height="79.2"/>
			<rect x="128.1" y="188.3" class="st0" width="79.2" height="79.2"/>
			<rect x="291.6" y="188.3" class="st0" width="79.3" height="79.2"/>
		</g>
	</g>
</g>
</svg>
