<?xml version="1.0" encoding="utf-8"?>
<!-- Generator: Adobe Illustrator 25.4.1, SVG Export Plug-In . SVG Version: 6.00 Build 0)  -->
<svg version="1.1" id="Layer_1" xmlns="http://www.w3.org/2000/svg" xmlns:xlink="http://www.w3.org/1999/xlink" x="0px" y="0px"
	 viewBox="0 0 496.1 496.1" style="enable-background:new 0 0 496.1 496.1;" xml:space="preserve">
<style type="text/css">
	.st0{fill:#FFFFFF;}
	.st1{fill:#999999;}
</style>
<path class="st0" d="M248.1,494.1L248.1,494.1c-135.9,0-246-110.1-246-246l0,0c0-135.9,110.1-246,246-246l0,0
	c135.9,0,246,110.1,246,246l0,0C494.1,383.9,383.9,494.1,248.1,494.1z"/>
<path class="st1" d="M257.8,63.3c27.2-35.8,65-36,65-36s5.6,33.7-21.4,66.1c-28.8,34.7-61.6,29-61.6,29S233.6,95.2,257.8,63.3z
	 M243.2,146.1c14,0,39.9-19.2,73.7-19.2c58.2,0,81,41.4,81,41.4s-44.8,22.9-44.8,78.4c0,62.6,55.8,84.2,55.8,84.2
	s-39,109.7-91.6,109.7c-24.2,0-43-16.3-68.4-16.3c-26,0-51.7,16.9-68.5,16.9c-48.1,0-108.8-104.1-108.8-187.7
	c0-82.3,51.4-125.5,99.6-125.5C202.6,128,226.9,146.1,243.2,146.1L243.2,146.1z"/>
</svg>
