<?xml version="1.0" encoding="utf-8"?>
<!-- Generator: Adobe Illustrator 25.4.1, SVG Export Plug-In . SVG Version: 6.00 Build 0)  -->
<svg version="1.1" id="Layer_1" xmlns="http://www.w3.org/2000/svg" xmlns:xlink="http://www.w3.org/1999/xlink" x="0px" y="0px"
	 viewBox="0 0 1034 1034" style="enable-background:new 0 0 1034 1034;" xml:space="preserve">
<style type="text/css">
	.st0{fill:#FFFFFF;}
</style>
<path class="st0" d="M361,182v129h-50l0,0H203v84l29-1c19.3,0,28.7,0.3,28,1c26,0,41,11.3,45,34v147h8h-8v206c-0.7,6.7-3,12-7,16
	c-5.3,6.7-12.7,10-22,10h-29h-28l-16,93l158,1v130h78V903c20.7,0.7,41.7,1,63,1v128h78V902c73.3-4,127.7-17,163-39
	c43.3-26,67.7-68,73-126c4-47.3-4.3-84.3-25-111c-18.7-24-48-41-88-51c51.3-26,74-69.7,68-131c-4.7-43.3-25-76-61-98
	c-30-18.7-73.3-30.3-130-35V182h-78v125l-63,1V182H361z M481,399c40,0,71.3,4.3,94,13c33.3,12.7,49.7,35,49,67
	c0,34.7-21.7,57.7-65,69c-24,6.7-59,9.7-105,9h-13V400L481,399z M489,635c48,0,85.3,4.7,112,14c40,13.3,60,37.7,60,73
	c0,27.3-13,48-39,62c-20,11.3-48,18.7-84,22c-20,2-47,2.7-81,2h-16V636L489,635z"/>
</svg>
