<svg xmlns="http://www.w3.org/2000/svg" viewBox="0 0 461.34 461.34"><defs><style>.cls-1{fill:silver;}</style></defs><g id="Layer_2" data-name="Layer 2"><g id="Layer_1-2" data-name="Layer 1"><path class="cls-1" d="M160.1,325.49H105.41q-11.84,0-16.9-5.31t-5.07-16.9V168.76q0-11.85,5.19-17t16.78-5.19h58a135,135,0,0,1,22.21,1.59,47.24,47.24,0,0,1,16.85,6.1,44.35,44.35,0,0,1,11.23,9.58,42.48,42.48,0,0,1,7.45,12.82,43.09,43.09,0,0,1,2.56,14.83q0,26.86-26.86,39.31,35.28,11.23,35.28,43.7a49.1,49.1,0,0,1-7.69,27,46.21,46.21,0,0,1-20.75,17.76,73.47,73.47,0,0,1-18.8,4.82A190.89,190.89,0,0,1,160.1,325.49ZM119.69,173.76V220H152.9q13.54,0,20.93-2.57a20,20,0,0,0,11.29-9.76,22,22,0,0,0,3.06-11.48q0-13.54-9.65-18t-29.42-4.46ZM157.41,246H119.69v52.24h38.95q36.74,0,36.74-26.49,0-13.54-9.52-19.65T157.41,246Z"/><path class="cls-1" d="M379.71,176.45H340.15v130q0,11.24-5,16.66a16.81,16.81,0,0,1-12.94,5.44,17,17,0,0,1-13.12-5.5q-5.07-5.49-5.07-16.6v-130H264.47q-9.29,0-13.79-4.09a13.86,13.86,0,0,1-4.52-10.81c0-4.63,1.57-8.3,4.7-11s7.67-4,13.61-4H379.71q9.39,0,14,4.15a14,14,0,0,1,4.58,10.86,13.72,13.72,0,0,1-4.64,10.81Q389,176.44,379.71,176.45Z"/><path class="cls-1" d="M230.67,0h0C103.27,0,0,103.27,0,230.67H0C0,358.06,103.27,461.34,230.67,461.34h0c127.39,0,230.67-103.28,230.67-230.67h0C461.34,103.27,358.06,0,230.67,0ZM431,226.25C431,336.56,341.53,426,231.22,426h0c-110.3,0-199.73-89.42-199.73-199.73h0c0-110.31,89.43-199.73,199.73-199.73h0C341.53,26.52,431,115.94,431,226.25Z"/></g></g></svg>