<?xml version="1.0" encoding="utf-8"?>
<!-- Generator: Adobe Illustrator 25.4.1, SVG Export Plug-In . SVG Version: 6.00 Build 0)  -->
<svg version="1.1" id="Layer_1" xmlns="http://www.w3.org/2000/svg" xmlns:xlink="http://www.w3.org/1999/xlink" x="0px" y="0px"
	 viewBox="0 0 24 24" style="enable-background:new 0 0 24 24;" xml:space="preserve">
<style type="text/css">
	.st0{fill:#E2E2E2;}
</style>
<path class="st0" d="M11,16l5-4l-5-4v3H2v2h9V16z"/>
<path class="st0" d="M13,3c-2.4,0-4.7,0.9-6.4,2.6L8,7.1C9.4,5.7,11.1,5,13,5s3.6,0.7,4.9,2.1S20,10.1,20,12s-0.7,3.6-2.1,5
	S14.9,19,13,19S9.4,18.3,8,17l-1.4,1.4c1.7,1.7,4,2.6,6.4,2.6s4.7-0.9,6.4-2.6c1.7-1.7,2.6-4,2.6-6.4s-0.9-4.7-2.6-6.4
	C17.7,3.9,15.4,3,13,3z"/>
</svg>
