<?xml version="1.0" encoding="utf-8"?>
<!-- Generator: Adobe Illustrator 25.4.1, SVG Export Plug-In . SVG Version: 6.00 Build 0)  -->
<svg version="1.1" id="Layer_1" xmlns="http://www.w3.org/2000/svg" xmlns:xlink="http://www.w3.org/1999/xlink" x="0px" y="0px"
	 viewBox="0 0 24 24" style="enable-background:new 0 0 24 24;" xml:space="preserve">
<style type="text/css">
	.st0{fill:#E2E2E2;}
</style>
<path class="st0" d="M20,12c-0.2,0-0.5,0-0.7,0.1l-2.4-2C17,10,17,9.7,17,9.5C17,8.1,15.9,7,14.5,7S12,8.1,12,9.5
	c0,0.4,0.1,0.8,0.3,1.1L9.4,14c-0.1,0-0.2,0-0.4,0c-0.2,0-0.3,0-0.5,0.1l-2.6-2.6C6,11.3,6,11.2,6,11c0-1.1-0.9-2-2-2s-2,0.9-2,2
	s0.9,2,2,2c0.2,0,0.3,0,0.5-0.1l2.6,2.6C7,15.7,7,15.8,7,16c0,1.1,0.9,2,2,2s2-0.9,2-2c0-0.2,0-0.5-0.1-0.7l2.9-3.4
	C14,12,14.3,12,14.5,12c0.4,0,0.8-0.1,1.1-0.3l2.4,2c0,0.1,0,0.2,0,0.3c0,1.1,0.9,2,2,2s2-0.9,2-2S21.1,12,20,12z"/>
</svg>
