<?xml version="1.0" encoding="utf-8"?>
<!-- Generator: Adobe Illustrator 25.4.1, SVG Export Plug-In . SVG Version: 6.00 Build 0)  -->
<svg version="1.1" id="Capa_1" xmlns="http://www.w3.org/2000/svg" xmlns:xlink="http://www.w3.org/1999/xlink" x="0px" y="0px"
	 viewBox="0 0 297 297" style="enable-background:new 0 0 297 297;" xml:space="preserve">
<style type="text/css">
	.st0{fill:#FFFFFF;}
</style>
<g>
	<path class="st0" d="M245.1,88.1h-6.4c-9.6,0-17.4,7.8-17.4,17.4v57.3c0,4.4-3.6,8.1-8.1,8.1c-3,0-30.1,1.1-30.1,30.1
		c0,4.4-3.6,8.1-8.1,8.1c-4.4,0-8.1-3.6-8.1-8.1c0-11,2.7-19.4,6.7-25.7H68.7V220c0,29,27.1,30.1,30.2,30.1c4.4,0,8,3.6,8,8.1v32.6
		h98.4v-32.6c0-4.5,3.6-8.1,8.1-8.1c20.2,0,34.6-8,42.7-23.7c6.4-12.5,6.5-25.4,6.5-25.5v-95.4C262.5,95.9,254.7,88.1,245.1,88.1z"
		/>
	<path class="st0" d="M286.9,6.2H10.1C4.5,6.2,0,10.7,0,16.3v134.3c0,5.6,4.5,10.1,10.1,10.1h180.6c5.3-2.7,10.5-4.4,14.6-5.1v-8.1
		H46.7c-2,0-3.9-0.7-5.4-2.1l-26.7-24c-1.7-1.5-2.7-3.7-2.7-6V51.5c0-2.3,1-4.5,2.7-6l26.7-24c1.5-1.3,3.4-2.1,5.4-2.1h203.5
		c2,0,3.9,0.7,5.4,2.1l26.7,24c1.7,1.5,2.7,3.7,2.7,6v63.9c0,2.3-1,4.5-2.7,6l-3.7,3.3v36h8.3c5.6,0,10.1-4.5,10.1-10.1V16.3
		C297,10.7,292.5,6.2,286.9,6.2z"/>
	<path class="st0" d="M49.8,35.6L28.1,55.1v56.7l21.7,19.5h155.4v-25.8c0-18.5,15-33.5,33.5-33.5h6.4c9.3,0,17.7,3.8,23.7,9.9V55.1
		l-21.7-19.5H49.8z M82,91.5H48.8c-4.5,0-8.1-3.6-8.1-8.1s3.6-8.1,8.1-8.1H82c4.4,0,8.1,3.6,8.1,8.1S86.5,91.5,82,91.5z
		 M148.5,116.7c-18.4,0-33.2-14.9-33.2-33.2s14.9-33.2,33.2-33.2s33.2,14.9,33.2,33.2S166.9,116.7,148.5,116.7z"/>
</g>
</svg>
