<?xml version="1.0" encoding="utf-8"?>
<!-- Generator: Adobe Illustrator 25.4.1, SVG Export Plug-In . SVG Version: 6.00 Build 0)  -->
<svg version="1.1" id="Layer_1" xmlns="http://www.w3.org/2000/svg" xmlns:xlink="http://www.w3.org/1999/xlink" x="0px" y="0px"
	 viewBox="0 0 458.1 458.1" style="enable-background:new 0 0 458.1 458.1;" xml:space="preserve">
<style type="text/css">
	.st0{fill:#FFFFFF;}
</style>
<g>
	<g>
		<g>
			<path class="st0" d="M428.1,14H138.5c-16.6,0-30,13.4-30,30v81c5,0,209.3,0,211.1,0c33.1,0,60,26.9,60,60c0,34.4,0,39.1,0,72.4
				h48.5c16.6,0,30-13.4,30-30V44C458.1,27.4,444.7,14,428.1,14z"/>
			<path class="st0" d="M319.6,155H30c-16.6,0-30,13.4-30,30v183.4c0,16.6,13.4,30,30,30h92.3l29.5,35.1c5.7,6.8,14.1,10.7,23,10.7
				s17.3-3.9,23-10.7l29.5-35.1h92.3c16.6,0,30-13.4,30-30V185C349.6,168.4,336.2,155,319.6,155z M148.3,322.2H70.2
				c-8.3,0-15-6.7-15-15s6.7-15,15-15h78.2c8.3,0,15,6.7,15,15C163.3,315.5,156.6,322.2,148.3,322.2z M271.5,260.1H70.2
				c-8.3,0-15-6.7-15-15s6.7-15,15-15h201.4c8.3,0,15,6.7,15,15C286.5,253.4,279.8,260.1,271.5,260.1z"/>
		</g>
	</g>
</g>
</svg>
