<?xml version="1.0" encoding="utf-8"?>
<!-- Generator: Adobe Illustrator 25.4.1, SVG Export Plug-In . SVG Version: 6.00 Build 0)  -->
<svg version="1.1" id="Layer_1" xmlns="http://www.w3.org/2000/svg" xmlns:xlink="http://www.w3.org/1999/xlink" x="0px" y="0px"
	 viewBox="0 0 24 24" style="enable-background:new 0 0 24 24;" xml:space="preserve">
<style type="text/css">
	.st0{fill:none;}
	.st1{fill:#FFFFFF;}
</style>
<rect class="st0" width="24" height="24"/>
<g>
	<path class="st1" d="M12,0C5.4,0,0,5.4,0,12s5.4,12,12,12s12-5.4,12-12S18.6,0,12,0z M13.2,19.2h-2.4v-2.4h2.4V19.2z M13.2,14.2
		v1.4h-2.4v-2.4c0-0.7,0.5-1.2,1.2-1.2c1.3,0,2.4-1.1,2.4-2.4S13.3,7.2,12,7.2S9.6,8.3,9.6,9.6H7.2c0-2.7,2.1-4.8,4.8-4.8
		s4.8,2.1,4.8,4.8C16.8,11.8,15.3,13.7,13.2,14.2z"/>
</g>
</svg>
