<?xml version="1.0" encoding="utf-8"?>
<!-- Generator: Adobe Illustrator 25.4.1, SVG Export Plug-In . SVG Version: 6.00 Build 0)  -->
<svg version="1.1" id="Layer_1" xmlns="http://www.w3.org/2000/svg" xmlns:xlink="http://www.w3.org/1999/xlink" x="0px" y="0px"
	 viewBox="0 0 16 16" style="enable-background:new 0 0 16 16;" xml:space="preserve">
<style type="text/css">
	.st0{fill:#FFFFFF;}
</style>
<path class="st0" d="M10.7,0.5c1.7,0.6,3.1,1.7,4,3.2c1,1.5,1.4,3.2,1.3,5c-0.1,1.8-0.9,3.4-2,4.7c-1.2,1.3-2.8,2.2-4.5,2.5
	c-1.7,0.3-3.5,0.1-5.1-0.7c-1.6-0.8-2.8-2.1-3.6-3.7c-0.2-0.5,0-1.1,0.5-1.3c0.5-0.2,1.1,0,1.3,0.5c0.6,1.2,1.5,2.2,2.7,2.8
	c1.2,0.6,2.5,0.8,3.8,0.6c1.3-0.2,2.5-0.9,3.4-1.9c0.9-1,1.4-2.2,1.5-3.5c0.1-1.3-0.2-2.6-0.9-3.7s-1.8-2-3-2.4
	C8.8,1.9,7.4,1.9,6.2,2.3C5.3,2.5,4.6,3,4,3.6l0.7,0.7C5.3,4.9,4.9,6,4,6H0V2c0-0.9,1.1-1.3,1.7-0.7l0.8,0.8c0.9-0.8,1.9-1.4,3-1.8
	C7.2-0.2,9-0.1,10.7,0.5z M8,4c0.6,0,1,0.4,1,1v2.6l1.7,1.7c0.4,0.4,0.4,1,0,1.4s-1,0.4-1.4,0L7,8.4V5C7,4.4,7.4,4,8,4z"/>
</svg>
