<?xml version="1.0" encoding="utf-8"?>
<!-- Generator: Adobe Illustrator 25.4.1, SVG Export Plug-In . SVG Version: 6.00 Build 0)  -->
<svg version="1.1" id="Capa_1" xmlns="http://www.w3.org/2000/svg" xmlns:xlink="http://www.w3.org/1999/xlink" x="0px" y="0px"
	 viewBox="0 0 493.6 493.6" style="enable-background:new 0 0 493.6 493.6;" xml:space="preserve">
<style type="text/css">
	.st0{fill:#E2E2E2;}
</style>
<g>
	<path class="st0" d="M487.3,226c0-17.4-14-31.5-31.5-31.5H194.5L305.4,83.6c12.2-12.2,12.2-32.2,0-44.7L275.6,9.2
		c-12.2-12.2-32.2-12.2-44.7,0L15.6,224.5c-6.1,6.1-9.3,14.2-9.3,22.3c0,8,3.1,16.1,9.3,22.3l215.3,215.3
		c12.2,12.2,32.2,12.2,44.7,0l29.8-29.8c12.2-12.2,12.2-32.2,0-44.7L194.5,299.5h261.1c17.4,0,31.5-14.2,31.5-31.5L487.3,226z"/>
</g>
</svg>
