<?xml version="1.0" encoding="utf-8"?>
<!-- Generator: Adobe Illustrator 25.4.1, SVG Export Plug-In . SVG Version: 6.00 Build 0)  -->
<svg version="1.1" id="Layer_1" xmlns="http://www.w3.org/2000/svg" xmlns:xlink="http://www.w3.org/1999/xlink" x="0px" y="0px"
	 viewBox="0 0 496.1 496.1" style="enable-background:new 0 0 496.1 496.1;" xml:space="preserve">
<style type="text/css">
	.st0{fill:#F40006;}
	.st1{fill:#FFC300;}
</style>
<path class="st0" d="M248.1,494.1L248.1,494.1c-135.9,0-246-110.1-246-246l0,0c0-135.9,110.1-246,246-246l0,0
	c135.9,0,246,110.1,246,246l0,0C494.1,383.9,383.9,494.1,248.1,494.1z"/>
<path class="st1" d="M332.8,91.2c31.5,0,57,132.7,57,296.5h45.6c0-176.3-46-319.3-102.6-319.3c-32.2,0-61,43-79.8,110.1
	c-18.8-67.2-47.6-110.1-79.8-110.1c-56.7,0-102.6,143-102.6,319.3h45.6c0-163.7,25.5-296.5,57-296.5c31.5,0,57,122.5,57,273.7h45.6
	C275.7,213.8,301.3,91.2,332.8,91.2"/>
</svg>
