<svg xmlns="http://www.w3.org/2000/svg" viewBox="0 0 187 150"><defs><style>.cls-1{fill:#ffc13c;}</style></defs><g id="Layer_2" data-name="Layer 2"><g id="Layer_1-2" data-name="Layer 1"><path class="cls-1" d="M18.7,30H168.3c10.35,0,18.7-6.7,18.7-15S178.65,0,168.3,0H18.7C8.35,0,0,6.7,0,15S8.35,30,18.7,30Z"/><path class="cls-1" d="M168.3,60H18.7C8.35,60,0,66.7,0,75S8.35,90,18.7,90H168.3c10.35,0,18.7-6.7,18.7-15S178.65,60,168.3,60Z"/><path class="cls-1" d="M168.3,120H18.7C8.35,120,0,126.7,0,135s8.35,15,18.7,15H168.3c10.35,0,18.7-6.7,18.7-15S178.65,120,168.3,120Z"/></g></g></svg>