<?xml version="1.0" encoding="utf-8"?>
<!-- Generator: Adobe Illustrator 25.4.1, SVG Export Plug-In . SVG Version: 6.00 Build 0)  -->
<svg version="1.1" id="Capa_1" xmlns="http://www.w3.org/2000/svg" xmlns:xlink="http://www.w3.org/1999/xlink" x="0px" y="0px"
	 viewBox="0 0 212 212" style="enable-background:new 0 0 212 212;" xml:space="preserve">
<style type="text/css">
	.st0{fill:#FFFFFF;}
</style>
<path class="st0" d="M0,128v21h31.5v31.5H63V212h21v-31.5h11.5V212h21v-31.5H128V212h21v-31.5h31.5V149H212v-21h-31.5v-11.5H212v-21
	h-31.5V84H212V63h-31.5V31.5H149V0h-21v31.5h-11.5V0h-21v31.5H84V0H63v31.5H31.5V63H0v21h31.5v11.5H0v21h31.5V128H0z M66.5,66.5
	h79.1v79.1H66.5V66.5z"/>
</svg>
