<?xml version="1.0" encoding="utf-8"?>
<!-- Generator: Adobe Illustrator 25.4.1, SVG Export Plug-In . SVG Version: 6.00 Build 0)  -->
<svg version="1.1" id="Layer_1" xmlns="http://www.w3.org/2000/svg" xmlns:xlink="http://www.w3.org/1999/xlink" x="0px" y="0px"
	 viewBox="0 0 496.1 496.1" style="enable-background:new 0 0 496.1 496.1;" xml:space="preserve">
<style type="text/css">
	.st0{fill:#D1D1D1;}
	.st1{fill:#AFAFAF;}
	.st2{fill:#9A9A9A;}
	.st3{fill:#757575;}
	.st4{fill:#C5C5C5;}
</style>
<path class="st0" d="M248.1,492.4L248.1,492.4c-135.9,0-246-110.1-246-246v0c0-135.9,110.1-246,246-246h0c135.9,0,246,110.1,246,246
	v0C494.1,382.2,383.9,492.4,248.1,492.4z"/>
<path class="st1" d="M175.7,364.6l-11.2-63.2c-0.6-4.4-3.1-7.8-5.6-7.8H73.5c-2.5,0-5,3.3-5.6,7.8l-11.8,65.4
	c-0.6,3.3,0,6.7,0.6,8.9c1.2,2.2,3.1,4.4,5,4.4h108.5l0,0c3.1,0,5.6-4.4,5.6-10C176.4,367.9,176.4,366.8,175.7,364.6z"/>
<path class="st2" d="M56.1,366.8c-0.6,3.3,0,6.7,0.6,8.9c1.2,2.2,3.1,4.4,5,4.4h108.5l0,0c3.1,0,5.6-4.4,5.6-10c0-2.2,0-3.3-0.6-5.5
	L164,301.4"/>
<path class="st3" d="M56.1,366.8c-0.6,3.3,0,6.7,0.6,8.9c1.2,2.2,3.1,4.4,5,4.4h108.5l0,0c3.1,0,5.6-4.4,5.6-10c0-2.2,0-3.3-0.6-5.5
	"/>
<path class="st4" d="M164.6,302.5c-0.6-4.4-3.1-7.8-5.6-7.8H73.5c-2.5,0-5,3.3-5.6,7.8"/>
<g>
	<path class="st1" d="M307.8,364.6l-11.2-63.2c-0.6-4.4-3.1-7.8-5.6-7.8h-85.5c-2.5,0-5,3.3-5.6,7.8l-11.8,64.3
		c-0.6,3.3,0,6.7,0.6,8.9c1.2,2.2,3.1,4.4,5,4.4h108.5l0,0c3.1,0,5.6-4.4,5.6-10C308.4,367.9,308.4,366.8,307.8,364.6z"/>
</g>
<path class="st2" d="M188.1,366.8c-0.6,3.3,0,6.7,0.6,8.9c1.2,2.2,3.1,4.4,5,4.4h108.5l0,0c3.1,0,5.6-4.4,5.6-10
	c0-2.2,0-3.3-0.6-5.5L296,301.4"/>
<path class="st3" d="M188.1,366.8c-0.6,3.3,0,6.7,0.6,8.9c1.2,2.2,3.1,4.4,5,4.4h108.5l0,0c3.1,0,5.6-4.4,5.6-10
	c0-2.2,0-3.3-0.6-5.5"/>
<path class="st4" d="M296.6,302.5c-0.6-4.4-3.1-7.8-5.6-7.8h-85.5c-2.5,0-5,3.3-5.6,7.8"/>
<g>
	<path class="st1" d="M439.8,364.6l-11.2-63.2c-0.6-4.4-3.1-7.8-5.6-7.8h-85.5c-2.5,0-5,3.3-5.6,7.8l-11.8,64.3
		c-0.6,3.3,0,6.7,0.6,8.9c1.2,2.2,3.1,4.4,5,4.4h108.5l0,0c3.1,0,5.6-4.4,5.6-10C440.4,367.9,440.4,366.8,439.8,364.6z"/>
</g>
<path class="st2" d="M320.2,366.8c-0.6,3.3,0,6.7,0.6,8.9c1.2,2.2,3.1,4.4,5,4.4h108.5l0,0c3.1,0,5.6-4.4,5.6-10
	c0-2.2,0-3.3-0.6-5.5L428,301.4"/>
<path class="st3" d="M320.2,366.8c-0.6,3.3,0,6.7,0.6,8.9c1.2,2.2,3.1,4.4,5,4.4h108.5l0,0c3.1,0,5.6-4.4,5.6-10
	c0-2.2,0-3.3-0.6-5.5"/>
<path class="st4" d="M428.7,302.5c-0.6-4.4-3.1-7.8-5.6-7.8h-85.5c-2.5,0-5,3.3-5.6,7.8"/>
<g>
	<path class="st1" d="M242.1,250.4l-11.2-63.2c-0.6-4.4-3.1-7.8-5.6-7.8h-86.2c-2.5,0-5,3.3-5.6,7.8l-11.2,65.4
		c-0.6,3.3,0,6.7,0.6,8.9c1.2,2.2,3.1,4.4,5,4.4h108.5l0,0c3.1,0,5.6-4.4,5.6-10C242.7,253.7,242.1,252.6,242.1,250.4z"/>
</g>
<path class="st2" d="M122.4,252.6c-0.6,3.3,0,6.7,0.6,8.9c1.2,2.2,3.1,4.4,5,4.4h108.5l0,0c3.1,0,5.6-4.4,5.6-10
	c0-2.2,0-3.3-0.6-5.5l-11.2-63.2"/>
<path class="st3" d="M122.4,252.6c-0.6,3.3,0,6.7,0.6,8.9c1.2,2.2,3.1,4.4,5,4.4h108.5l0,0c3.1,0,5.6-4.4,5.6-10
	c0-2.2,0-3.3-0.6-5.5"/>
<path class="st4" d="M230.3,188.3c-0.6-4.4-3.1-7.8-5.6-7.8h-85.5c-2.5,0-5,3.3-5.6,7.8"/>
<g>
	<path class="st1" d="M373.5,250.4l-11.2-63.2c-0.6-4.4-3.1-7.8-5.6-7.8h-85.5c-2.5,0-5,3.3-5.6,7.8l-11.2,65.4
		c-0.6,3.3,0,6.7,0.6,8.9c1.2,2.2,3.1,4.4,5,4.4h108.5l0,0c3.1,0,5.6-4.4,5.6-10C374.7,253.7,374.1,252.6,373.5,250.4z"/>
</g>
<path class="st2" d="M254.5,252.6c-0.6,3.3,0,6.7,0.6,8.9c1.2,2.2,3.1,4.4,5,4.4h108.5l0,0c3.1,0,5.6-4.4,5.6-10
	c0-2.2,0-3.3-0.6-5.5l-11.2-63.2"/>
<path class="st3" d="M254.5,252.6c-0.6,3.3,0,6.7,0.6,8.9c1.2,2.2,3.1,4.4,5,4.4h108.5l0,0c3.1,0,5.6-4.4,5.6-10
	c0-2.2,0-3.3-0.6-5.5"/>
<path class="st4" d="M362.3,188.3c-0.6-4.4-3.1-7.8-5.6-7.8h-85.5c-2.5,0-5,3.3-5.6,7.8"/>
<g>
	<path class="st1" d="M307.8,139.5l-11.2-63.2c-0.6-4.4-3.1-7.8-5.6-7.8h-85.5c-2.5,0-5,3.3-5.6,7.8l-11.8,65.4
		c-0.6,3.3,0,6.7,0.6,8.9c1.2,2.2,3.1,4.4,5,4.4h108.5l0,0c3.1,0,5.6-4.4,5.6-10C308.4,142.8,308.4,141.7,307.8,139.5z"/>
</g>
<path class="st2" d="M188.1,141.7c-0.6,3.3,0,6.7,0.6,8.9c1.2,2.2,3.1,4.4,5,4.4h108.5l0,0c3.1,0,5.6-4.4,5.6-10
	c0-2.2,0-3.3-0.6-5.5L296,76.3"/>
<path class="st3" d="M188.1,141.7c-0.6,3.3,0,6.7,0.6,8.9c1.2,2.2,3.1,4.4,5,4.4h108.5l0,0c3.1,0,5.6-4.4,5.6-10
	c0-2.2,0-3.3-0.6-5.5"/>
<path class="st4" d="M296.6,76.3c-0.6-4.4-3.1-7.8-5.6-7.8h-85.5c-2.5,0-5,3.3-5.6,7.8"/>
</svg>
