<?xml version="1.0" encoding="utf-8"?>
<!-- Generator: Adobe Illustrator 25.4.1, SVG Export Plug-In . SVG Version: 6.00 Build 0)  -->
<svg version="1.1" id="Capa_1" xmlns="http://www.w3.org/2000/svg" xmlns:xlink="http://www.w3.org/1999/xlink" x="0px" y="0px"
	 viewBox="0 0 298.3 298.3" style="enable-background:new 0 0 298.3 298.3;" xml:space="preserve">
<style type="text/css">
	.st0{fill:#FFFFFF;}
</style>
<g>
	<path class="st0" d="M265,135.8c-2.5,0-4.9,0.3-7.2,1c-2.2-12.6-13.2-22.3-26.4-22.3c-4.3,0-8.3,1-11.9,2.8
		c-4.9-6.7-12.8-11-21.6-11c-2.3,0-4.6,0.3-6.8,0.9V77.4c0-14.8-12-26.8-26.8-26.8s-26.8,12-26.8,26.8v67.9
		c-0.3,0.1-0.5,0.2-0.8,0.4l-15.2,8.5c-14.3,8-20.1,25.2-13.5,40.2l11.4,25.9c0.6,1.3,1.4,2.4,2.4,3.4l25.2,23
		c4.3,7.8,10,14.8,16.9,20.9l0,20.9c0,5.5,4.5,10,10,10h81.4c5.5,0,10-4.5,10-10l0-20.9c16.9-14.7,26.4-35.6,26.4-58.2v-46.7
		C291.7,147.8,279.7,135.8,265,135.8z M136.8,210.3l-10.6-24c-2.4-5.5-0.3-11.8,4.9-14.7l6.3-3.5v41.1c0,0.5,0,1.1,0,1.6
		L136.8,210.3z M271.7,209.3c0,18-8.2,34.5-22.5,45.5c-2.5,1.9-3.9,4.8-3.9,7.9l0,15.7h-61.4l0-15.7c0-3.1-1.5-6.1-3.9-7.9
		c-14.3-10.9-22.5-27.5-22.5-45.5V77.4c0-3.7,3-6.8,6.8-6.8s6.8,3,6.8,6.8v96.1c0,5.5,4.5,10,10,10s10-4.5,10-10v-40.4
		c0-3.7,3-6.8,6.8-6.8s6.8,3,6.8,6.8v41.2c0,5.5,4.5,10,10,10s10-4.5,10-10v-33c0-3.7,3-6.8,6.8-6.8s6.8,3,6.8,6.8v21.3v10.9
		c0,5.5,4.5,10,10,10s10-4.5,10-10v-10.9c0-3.7,3-6.8,6.8-6.8s6.8,3,6.8,6.8V209.3z"/>
	<circle class="st0" cx="23" cy="16.4" r="16.4"/>
	<circle class="st0" cx="94" cy="16.4" r="16.4"/>
	<circle class="st0" cx="165" cy="16.4" r="16.4"/>
	<circle class="st0" cx="23" cy="71" r="16.4"/>
	<circle class="st0" cx="94" cy="71" r="16.4"/>
	<circle class="st0" cx="23" cy="125.6" r="16.4"/>
	<circle class="st0" cx="94" cy="125.6" r="16.4"/>
</g>
</svg>
