<?xml version="1.0" encoding="utf-8"?>
<!-- Generator: Adobe Illustrator 25.4.1, SVG Export Plug-In . SVG Version: 6.00 Build 0)  -->
<svg version="1.1" id="Capa_1" xmlns="http://www.w3.org/2000/svg" xmlns:xlink="http://www.w3.org/1999/xlink" x="0px" y="0px"
	 viewBox="0 0 612 612" style="enable-background:new 0 0 612 612;" xml:space="preserve">
<style type="text/css">
	.st0{fill:#FFFFFF;}
</style>
<g>
	<g>
		<path class="st0" d="M528.9,0H83.1C49.5,0,22.1,27.3,22.1,60.9v438.2c0,33.6,27.3,60.9,60.9,60.9h445.9
			c33.6,0,60.9-27.3,60.9-60.9V60.9C589.9,27.3,562.5,0,528.9,0z M560.3,499.1c0,17.3-14,31.3-31.3,31.3H83.1
			c-17.3,0-31.3-14-31.3-31.3V60.9c0-17.3,14-31.3,31.3-31.3h445.9c17.3,0,31.3,14,31.3,31.3V499.1z"/>
		<path class="st0" d="M392.2,602.1c0,5.5,4.4,9.9,9.9,9.9h84.2c5.5,0,9.9-4.4,9.9-9.9v-22.4H392.2V602.1z"/>
		<path class="st0" d="M115.9,602.1c0,5.5,4.4,9.9,9.9,9.9h84.2c5.4,0,9.9-4.4,9.9-9.9v-22.4H115.9V602.1z"/>
		<path class="st0" d="M533.3,123.4h-22.4h-12.5c-5.5,0-9.9,4.4-9.9,9.9l0,59.5c0,5.4,4.4,9.9,9.9,9.9h12.5h22.4
			c5.5,0,9.9-4.4,9.9-9.9v-59.5C543.1,127.8,538.7,123.4,533.3,123.4z"/>
		<path class="st0" d="M477.5,447.7c-5.6-5.6-8.7-13-8.7-20.9v-59.5c0-16.3,13.3-29.6,29.6-29.6h17.4V222.4h-17.4
			c-7.9,0-15.3-3.1-20.9-8.7c-5.6-5.6-8.7-13-8.7-20.9v-59.5c0-16.3,13.3-29.6,29.6-29.6h17.4c0-18.5,0-29.6,0-29.6H96.2v412h419.7
			c0,0,0-11.1,0-29.6h-17.4C490.5,456.4,483.1,453.3,477.5,447.7z M210.4,351.6c-34.1,0-61.7-27.6-61.7-61.7
			c0-34.1,27.6-61.7,61.7-61.7s61.7,27.6,61.7,61.7C272.1,323.9,244.4,351.6,210.4,351.6z"/>
		<circle class="st0" cx="210.4" cy="289.9" r="21"/>
		<path class="st0" d="M533.3,357.4h-22.4l-12.5,0c-5.5,0-9.9,4.4-9.9,9.9l0,59.5c0,5.5,4.4,9.9,9.9,9.9h12.5h22.4
			c5.5,0,9.9-4.4,9.9-9.9v-59.5C543.1,361.8,538.7,357.4,533.3,357.4z"/>
	</g>
</g>
</svg>
