<?xml version="1.0" encoding="utf-8"?>
<!-- Generator: Adobe Illustrator 25.4.1, SVG Export Plug-In . SVG Version: 6.00 Build 0)  -->
<svg version="1.1" id="Capa_1" xmlns="http://www.w3.org/2000/svg" xmlns:xlink="http://www.w3.org/1999/xlink" x="0px" y="0px"
	 viewBox="0 0 386.7 386.7" style="enable-background:new 0 0 386.7 386.7;" xml:space="preserve">
<style type="text/css">
	.st0{fill:#FFFFFF;}
</style>
<g>
	<path class="st0" d="M342.4,135.8c-2.7-1.4-5.9-1.1-8.3,0.6l-138.6,100l-89.2-83.7c-3-2.8-7.7-2.9-10.8-0.1l-74.4,67
		c-1.7,1.5-2.6,3.7-2.6,5.9v91.5c0,4.4,3.6,8,8,8h312.3c4.4,0,8-3.6,8-8v-174C346.7,139.9,345,137.1,342.4,135.8z M53.5,308.9H34.4
		V229l19.1-17.2C53.5,211.8,53.5,308.9,53.5,308.9z M88,308.9H69.5V197.4L88,180.7C88,180.7,88,308.9,88,308.9z M122.6,308.9H104
		V172.5l18.5,17.4V308.9z M157.1,308.9h-18.5v-104l18.5,17.4V308.9z M192,308.9h-18.9v-71.6l16.2,15.2c0.8,0.7,1.7,1.3,2.7,1.6
		L192,308.9L192,308.9z M226.9,308.9H208v-61.8l18.9-13.6V308.9z M261.8,308.9h-18.9v-87l18.9-13.6L261.8,308.9L261.8,308.9z
		 M296.7,308.9h-18.9V196.7l18.9-13.6V308.9z M330.7,308.9h-18V171.5l18-13V308.9z"/>
	<path class="st0" d="M385.4,65.1c-1.4-2.1-3.9-3.4-6.5-3.3l-50.7,1.4c-3.5,0.1-6.4,2.5-7.2,5.9c-0.7,3.4,1,6.8,4.1,8.4l11.8,5.8
		L197,183l-95.4-86.5c-4.7-4.3-12-4.3-16.7-0.1l-80.7,72c-5.1,4.6-5.6,12.5-1,17.6c4.6,5.1,12.5,5.6,17.6,1l72.3-64.6l94.5,85.7
		c2.4,2.1,5.4,3.2,8.4,3.2c2.5,0,5.1-0.8,7.3-2.3L350.8,104l0.7,11.1c0.2,3.5,2.8,6.3,6.2,6.9c0.4,0.1,0.9,0.1,1.3,0.1
		c2.9,0,5.7-1.7,6.9-4.5L386,72.3C387.1,70,386.8,67.2,385.4,65.1z"/>
</g>
</svg>
