<?xml version="1.0" encoding="utf-8"?>
<!-- Generator: Adobe Illustrator 25.4.1, SVG Export Plug-In . SVG Version: 6.00 Build 0)  -->
<svg version="1.1" id="Capa_1" xmlns="http://www.w3.org/2000/svg" xmlns:xlink="http://www.w3.org/1999/xlink" x="0px" y="0px"
	 viewBox="0 0 502.6 502.6" style="enable-background:new 0 0 502.6 502.6;" xml:space="preserve">
<style type="text/css">
	.st0{fill:#FFFFFF;}
</style>
<g>
	<g>
		<g>
			<path class="st0" d="M422.3,180.2C417.9,79.9,343.2,0,251.3,0C159.5,0,84.7,79.9,80.4,180.2c-13.4,3.6-23.4,15.7-23.4,30.2v78.1
				c0,17.3,14,31.4,31.4,31.4s31.4-14,31.4-31.4h0v-6C134.7,351.5,170.7,441,251.3,441c80.6,0,116.6-89.4,131.5-158.5v6
				c0,13.8,9,25.4,21.4,29.6c-0.9,15.8-9.4,99.4-91.1,134.2c-5.1-3.2-11.3-4.2-17.5-2l-35.9,13.3c-10.4,3.9-15.8,15.5-11.9,25.9
				c3.9,10.5,15.5,15.8,25.9,12l35.9-13.3c7.8-2.9,12.8-10.1,13.2-17.9c91.5-40.4,100.8-137,101.7-152.3c12.2-4.2,21-15.7,21-29.4
				v-78.1C445.6,195.9,435.6,183.7,422.3,180.2z M251.3,59.6c-71.4,0-130.3,56.7-139.4,130.1c-2.4-2.8-5.3-5-8.6-6.8
				c3-87.5,68-157.4,148-157.4c80,0,145,69.9,148,157.4c-3.2,1.8-6.1,4-8.5,6.8C381.6,116.2,322.8,59.6,251.3,59.6z"/>
		</g>
	</g>
</g>
</svg>
