<?xml version="1.0" encoding="utf-8"?>
<!-- Generator: Adobe Illustrator 25.4.1, SVG Export Plug-In . SVG Version: 6.00 Build 0)  -->
<svg version="1.1" id="Layer_1" xmlns="http://www.w3.org/2000/svg" xmlns:xlink="http://www.w3.org/1999/xlink" x="0px" y="0px"
	 viewBox="0 0 24 24" style="enable-background:new 0 0 24 24;" xml:space="preserve">
<style type="text/css">
	.st0{fill:#FFFFFF;stroke:#FFFFFF;stroke-width:2;stroke-linecap:round;stroke-linejoin:round;}
	.st1{fill:none;stroke:#FFFFFF;stroke-width:2;stroke-linecap:round;stroke-linejoin:round;}
</style>
<path class="st0" d="M12,2H4C2.9,2,2,2.9,2,4v6c0,1.1,0.9,2,2,2h0.9c0.7,0,1.3,0.3,1.7,0.9l0.6,0.9c0.3,0.5,0.9,0.6,1.4,0.3
	c0.1-0.1,0.2-0.2,0.3-0.3l0.6-0.9c0.4-0.6,1-0.9,1.7-0.9H12c1.1,0,2-0.9,2-2V4C14,2.9,13.1,2,12,2z"/>
<path class="st1" d="M18,10h2c1.1,0,2,0.9,2,2v6c0,1.1-0.9,2-2,2h-0.9c-0.7,0-1.3,0.3-1.7,0.9l-0.6,0.9c-0.3,0.5-0.9,0.6-1.4,0.3
	c-0.1-0.1-0.2-0.2-0.3-0.3l-0.6-0.9c-0.4-0.6-1-0.9-1.7-0.9H12c-1.1,0-2-0.9-2-2v-1"/>
</svg>
