<?xml version="1.0" encoding="utf-8"?>
<!-- Generator: Adobe Illustrator 25.4.1, SVG Export Plug-In . SVG Version: 6.00 Build 0)  -->
<svg version="1.1" id="Layer_1" xmlns="http://www.w3.org/2000/svg" xmlns:xlink="http://www.w3.org/1999/xlink" x="0px" y="0px"
	 viewBox="0 0 24 24" style="enable-background:new 0 0 24 24;" xml:space="preserve">
<style type="text/css">
	.st0{fill:#FFC13C;}
	.st1{fill:#707070;}
</style>
<path class="st0" d="M20,2H8C6.9,2,6,2.9,6,4v12c0,1.1,0.9,2,2,2h12c1.1,0,2-0.9,2-2V4C22,2.9,21.1,2,20,2z M14,4.5
	c1.4,0,2.5,1.1,2.5,2.5S15.4,9.5,14,9.5S11.5,8.4,11.5,7S12.6,4.5,14,4.5z M19,15H9v-0.2c0-1.8,2.3-3.8,5-3.8s5,1.9,5,3.8V15z"/>
<path class="st1" d="M4,8H2v12c0,1.1,0.9,2,2,2h12v-2H4V8z"/>
</svg>
