<?xml version="1.0" encoding="utf-8"?>
<!-- Generator: Adobe Illustrator 25.4.1, SVG Export Plug-In . SVG Version: 6.00 Build 0)  -->
<svg version="1.1" id="Layer_1" xmlns="http://www.w3.org/2000/svg" xmlns:xlink="http://www.w3.org/1999/xlink" x="0px" y="0px"
	 viewBox="0 0 24 24" style="enable-background:new 0 0 24 24;" xml:space="preserve">
<style type="text/css">
	.st0{fill:#FFFFFF;}
</style>
<path class="st0" d="M21.9,11.6C21.7,11.1,21.3,11,21,11V8c0-1.1-0.9-2-2-2h-6V4.6c0.3-0.3,0.5-0.7,0.5-1.1C13.5,2.7,12.8,2,12,2
	s-1.5,0.7-1.5,1.5c0,0.4,0.2,0.8,0.5,1.1V6H5C3.9,6,3,6.9,3,8v3l-0.1,0C2.4,11,2,11.5,2,12v2c0,0.6,0.4,1,1,1h0v5c0,1.1,0.9,2,2,2
	h14c1.1,0,2-0.9,2-2v-5c0.6,0,1-0.4,1-1v-1.9C22,11.9,22,11.8,21.9,11.6z M5,20V8h14l0,4l0,0v2l0,0l0,6H5z"/>
<ellipse class="st0" cx="8.5" cy="12" rx="1.5" ry="2"/>
<ellipse class="st0" cx="15.5" cy="12" rx="1.5" ry="2"/>
<path class="st0" d="M8,16h8v2H8V16z"/>
</svg>
