<?xml version="1.0" encoding="utf-8"?>
<!-- Generator: Adobe Illustrator 25.4.1, SVG Export Plug-In . SVG Version: 6.00 Build 0)  -->
<svg version="1.1" id="Layer_1" xmlns="http://www.w3.org/2000/svg" xmlns:xlink="http://www.w3.org/1999/xlink" x="0px" y="0px"
	 viewBox="0 0 24 24" style="enable-background:new 0 0 24 24;" xml:space="preserve">
<style type="text/css">
	.st0{fill:#E2E2E2;}
</style>
<path class="st0" d="M21,4H2v2h2.3l3.3,9c0.4,1.2,1.6,2,2.8,2H19v-2h-8.6c-0.4,0-0.8-0.3-0.9-0.7L9,13h9.3c0.9,0,1.7-0.6,1.9-1.4
	L22,5.3c0.2-0.5-0.1-1.1-0.7-1.3c0,0,0,0-0.1,0C21.2,4,21.1,4,21,4z M18.2,11h-10L6.4,6h13.2L18.2,11z"/>
<circle class="st0" cx="10.5" cy="19.5" r="1.5"/>
<circle class="st0" cx="16.5" cy="19.5" r="1.5"/>
</svg>
