<?xml version="1.0" encoding="utf-8"?>
<!-- Generator: Adobe Illustrator 25.4.1, SVG Export Plug-In . SVG Version: 6.00 Build 0)  -->
<svg version="1.1" id="Uploaded_to_svgrepo.com" xmlns="http://www.w3.org/2000/svg" xmlns:xlink="http://www.w3.org/1999/xlink"
	 x="0px" y="0px" viewBox="0 0 32 32" style="enable-background:new 0 0 32 32;" xml:space="preserve">
<style type="text/css">
	.st0{fill:#FFFFFF;}
</style>
<path class="st0" d="M1,24c0,1.1,0.9,2,2,2h26c1.1,0,2-0.9,2-2V12H1V24z M4,19h12c0.6,0,1,0.4,1,1s-0.4,1-1,1H4c-0.6,0-1-0.4-1-1
	S3.4,19,4,19z M4,22h5c0.6,0,1,0.4,1,1s-0.4,1-1,1H4c-0.6,0-1-0.4-1-1S3.4,22,4,22z M31,8v1H1V8c0-1.1,0.9-2,2-2h26
	C30.1,6,31,6.9,31,8z"/>
</svg>
