<?xml version="1.0" encoding="utf-8"?>
<!-- Generator: Adobe Illustrator 25.4.1, SVG Export Plug-In . SVG Version: 6.00 Build 0)  -->
<svg version="1.1" id="Capa_1" xmlns="http://www.w3.org/2000/svg" xmlns:xlink="http://www.w3.org/1999/xlink" x="0px" y="0px"
	 viewBox="0 0 294.6 294.6" style="enable-background:new 0 0 294.6 294.6;" xml:space="preserve">
<style type="text/css">
	.st0{fill:#FFFFFF;}
</style>
<path class="st0" d="M158.1,6.9C156.2,2.7,152,0,147.3,0c-4.6,0-8.9,2.7-10.8,6.9c-29.9,65-82.9,148.6-82.9,194.1
	c0,51.7,41.9,93.6,93.6,93.6S241,252.7,241,201C241,155.5,188,71.9,158.1,6.9z M143.3,264.8c-34.6,0-62.8-28.1-62.8-62.8
	c0-6.9,5.6-12.5,12.5-12.5s12.5,5.6,12.5,12.5c0,20.8,16.9,37.8,37.8,37.8c6.9,0,12.5,5.6,12.5,12.5
	C155.8,259.2,150.2,264.8,143.3,264.8z"/>
</svg>
