<?xml version="1.0" encoding="utf-8"?>
<!-- Generator: Adobe Illustrator 25.4.1, SVG Export Plug-In . SVG Version: 6.00 Build 0)  -->
<svg version="1.1" id="Layer_1" xmlns="http://www.w3.org/2000/svg" xmlns:xlink="http://www.w3.org/1999/xlink" x="0px" y="0px"
	 viewBox="0 0 496.1 496.1" style="enable-background:new 0 0 496.1 496.1;" xml:space="preserve">
<style type="text/css">
	.st0{fill:#FFFFFF;}
	.st1{fill:#1C0055;}
</style>
<path class="st0" d="M248.1,494.1L248.1,494.1c-135.9,0-246-110.1-246-246l0,0c0-135.9,110.1-246,246-246l0,0
	c135.9,0,246,110.1,246,246l0,0C494.1,383.9,383.9,494.1,248.1,494.1z"/>
<path class="st1" d="M417.3,267.8l33.4-37.5h-39.1L398,245.8l-14.1-15.5h-74.3v-10h35.1v-30.1h-94.6v47.3h-0.3
	c-6-6.9-13.5-9.3-22.2-9.3c-17.8,0-31.2,12.1-35.9,28.1c-11.3-37.2-61-36.1-76.3-8.8v-15.1H81.2v-16.4h37.6v-25.7H50.5v115.4h30.7
	v-48.5h30.6c-0.9,3.6-1.4,7.4-1.4,11.4c0,45.8,64.2,57.2,81.5,14.8h-26.3c-9.2,13.1-28.7,5.6-28.7-9.1h53.5
	c2.3,19.1,17.2,35.6,37.6,35.6c8.8,0,16.9-4.3,21.8-11.6h0.3v7.4H383l13.8-15.6l14,15.6h40.3L417.3,267.8z M137.7,257.4
	c3.8-16.5,26.1-16,29.1,0H137.7z M233.7,288c-21.7,0-21.3-39.3,0-39.3C254.1,248.7,255.3,288,233.7,288z M338.7,299.9h-59.1V195.7
	h59.5v18.9H304v21.2h34.7v17.6h-35.1v28h35.1V299.9z M310,275v-15.3h35.1v-27.5l31.7,35.7l-31.7,35.7V275H310z M396.8,281.5
	l-16.3,18.5h-23.8l28.5-32l-28.5-32h24.9l16.7,18.3l16-18.3h24.1l-28.4,31.9l28.8,32.2h-25.4L396.8,281.5z"/>
</svg>
