<?xml version="1.0" encoding="utf-8"?>
<!-- Generator: Adobe Illustrator 25.4.1, SVG Export Plug-In . SVG Version: 6.00 Build 0)  -->
<svg version="1.1" id="Layer_1" xmlns="http://www.w3.org/2000/svg" xmlns:xlink="http://www.w3.org/1999/xlink" x="0px" y="0px"
	 viewBox="0 0 496.1 496.1" style="enable-background:new 0 0 496.1 496.1;" xml:space="preserve">
<style type="text/css">
	.st0{fill:#FFC200;}
	.st1{fill:#FFB000;}
	.st2{fill:#FF9700;}
	.st3{fill:#FFDA00;}
</style>
<path class="st0" d="M154.7,426l-14.4-81.5c-0.8-5.7-4-10-7.2-10H22.7c-3.2,0-6.4,4.3-7.2,10L0.3,428.8c-0.8,4.3,0,8.6,0.8,11.4
	c1.6,2.9,4,5.7,6.4,5.7h140l0,0c4,0,7.2-5.7,7.2-12.9C155.5,430.3,155.5,428.8,154.7,426z"/>
<path class="st1" d="M0.3,428.8c-0.8,4.3,0,8.6,0.8,11.4c1.6,2.9,4,5.7,6.4,5.7h140l0,0c4,0,7.2-5.7,7.2-12.9c0-2.9,0-4.3-0.8-7.2
	l-14.4-81.5"/>
<path class="st2" d="M0.3,428.8c-0.8,4.3,0,8.6,0.8,11.4c1.6,2.9,4,5.7,6.4,5.7h140l0,0c4,0,7.2-5.7,7.2-12.9c0-2.9,0-4.3-0.8-7.2"
	/>
<path class="st3" d="M140.3,345.9c-0.8-5.7-4-10-7.2-10H22.7c-3.2,0-6.4,4.3-7.2,10"/>
<g>
	<path class="st0" d="M325.1,426l-14.4-81.5c-0.8-5.7-4-10-7.2-10H193.1c-3.2,0-6.4,4.3-7.2,10l-15.2,83c-0.8,4.3,0,8.6,0.8,11.4
		c1.6,2.9,4,5.7,6.4,5.7h140l0,0c4,0,7.2-5.7,7.2-12.9C325.9,430.3,325.9,428.8,325.1,426z"/>
</g>
<path class="st1" d="M170.7,428.8c-0.8,4.3,0,8.6,0.8,11.4c1.6,2.9,4,5.7,6.4,5.7h140l0,0c4,0,7.2-5.7,7.2-12.9c0-2.9,0-4.3-0.8-7.2
	l-14.4-81.5"/>
<path class="st2" d="M170.7,428.8c-0.8,4.3,0,8.6,0.8,11.4c1.6,2.9,4,5.7,6.4,5.7h140l0,0c4,0,7.2-5.7,7.2-12.9c0-2.9,0-4.3-0.8-7.2
	"/>
<path class="st3" d="M310.7,345.9c-0.8-5.7-4-10-7.2-10H193.1c-3.2,0-6.4,4.3-7.2,10"/>
<g>
	<path class="st0" d="M495.5,426l-14.4-81.5c-0.8-5.7-4-10-7.2-10H363.5c-3.2,0-6.4,4.3-7.2,10l-15.2,83c-0.8,4.3,0,8.6,0.8,11.4
		c1.6,2.9,4,5.7,6.4,5.7h140l0,0c4,0,7.2-5.7,7.2-12.9C496.3,430.3,496.3,428.8,495.5,426z"/>
</g>
<path class="st1" d="M341.1,428.8c-0.8,4.3,0,8.6,0.8,11.4c1.6,2.9,4,5.7,6.4,5.7h140l0,0c4,0,7.2-5.7,7.2-12.9c0-2.9,0-4.3-0.8-7.2
	l-14.4-81.5"/>
<path class="st2" d="M341.1,428.8c-0.8,4.3,0,8.6,0.8,11.4c1.6,2.9,4,5.7,6.4,5.7h140l0,0c4,0,7.2-5.7,7.2-12.9c0-2.9,0-4.3-0.8-7.2
	"/>
<path class="st3" d="M481.1,345.9c-0.8-5.7-4-10-7.2-10H363.5c-3.2,0-6.4,4.3-7.2,10"/>
<g>
	<path class="st0" d="M240.3,278.6l-14.4-81.5c-0.8-5.7-4-10-7.2-10H107.5c-3.2,0-6.4,4.3-7.2,10l-14.4,84.4
		c-0.8,4.3,0,8.6,0.8,11.4c1.6,2.9,4,5.7,6.4,5.7h140l0,0c4,0,7.2-5.7,7.2-12.9C241.1,282.9,240.3,281.5,240.3,278.6z"/>
</g>
<path class="st1" d="M85.9,281.5c-0.8,4.3,0,8.6,0.8,11.4c1.6,2.9,4,5.7,6.4,5.7h140l0,0c4,0,7.2-5.7,7.2-12.9c0-2.9,0-4.3-0.8-7.2
	l-14.4-81.5"/>
<path class="st2" d="M85.9,281.5c-0.8,4.3,0,8.6,0.8,11.4c1.6,2.9,4,5.7,6.4,5.7h140l0,0c4,0,7.2-5.7,7.2-12.9c0-2.9,0-4.3-0.8-7.2"
	/>
<path class="st3" d="M225.1,198.5c-0.8-5.7-4-10-7.2-10H107.5c-3.2,0-6.4,4.3-7.2,10"/>
<g>
	<path class="st0" d="M409.9,278.6l-14.4-81.5c-0.8-5.7-4-10-7.2-10H277.9c-3.2,0-6.4,4.3-7.2,10l-14.4,84.4
		c-0.8,4.3,0,8.6,0.8,11.4c1.6,2.9,4,5.7,6.4,5.7h140l0,0c4,0,7.2-5.7,7.2-12.9C411.5,282.9,410.7,281.5,409.9,278.6z"/>
</g>
<path class="st1" d="M256.3,281.5c-0.8,4.3,0,8.6,0.8,11.4c1.6,2.9,4,5.7,6.4,5.7h140l0,0c4,0,7.2-5.7,7.2-12.9c0-2.9,0-4.3-0.8-7.2
	l-14.4-81.5"/>
<path class="st2" d="M256.3,281.5c-0.8,4.3,0,8.6,0.8,11.4c1.6,2.9,4,5.7,6.4,5.7h140l0,0c4,0,7.2-5.7,7.2-12.9c0-2.9,0-4.3-0.8-7.2
	"/>
<path class="st3" d="M395.5,198.5c-0.8-5.7-4-10-7.2-10H277.9c-3.2,0-6.4,4.3-7.2,10"/>
<g>
	<path class="st0" d="M325.1,135.6L310.7,54c-0.8-5.7-4-10-7.2-10H193.1c-3.2,0-6.4,4.3-7.2,10l-15.2,84.4c-0.8,4.3,0,8.6,0.8,11.4
		c1.6,2.9,4,5.7,6.4,5.7h140l0,0c4,0,7.2-5.7,7.2-12.9C325.9,139.9,325.9,138.4,325.1,135.6z"/>
</g>
<path class="st1" d="M170.7,138.4c-0.8,4.3,0,8.6,0.8,11.4c1.6,2.9,4,5.7,6.4,5.7h140l0,0c4,0,7.2-5.7,7.2-12.9c0-2.9,0-4.3-0.8-7.2
	L309.9,54"/>
<path class="st2" d="M170.7,138.4c-0.8,4.3,0,8.6,0.8,11.4c1.6,2.9,4,5.7,6.4,5.7h140l0,0c4,0,7.2-5.7,7.2-12.9c0-2.9,0-4.3-0.8-7.2
	"/>
<path class="st3" d="M310.7,54c-0.8-5.7-4-10-7.2-10H193.1c-3.2,0-6.4,4.3-7.2,10"/>
</svg>
