<?xml version="1.0" encoding="utf-8"?>
<!-- Generator: Adobe Illustrator 25.4.1, SVG Export Plug-In . SVG Version: 6.00 Build 0)  -->
<svg version="1.1" id="Layer_1" xmlns="http://www.w3.org/2000/svg" xmlns:xlink="http://www.w3.org/1999/xlink" x="0px" y="0px"
	 viewBox="0 0 24 24" style="enable-background:new 0 0 24 24;" xml:space="preserve">
<style type="text/css">
	.st0{fill:#FFFFFF;}
</style>
<g>
	<path class="st0" d="M13,8.5v8c0,1.7-1.3,3-3,3H7.8c-0.6,1.6-2.3,2.4-3.8,1.8c-1.6-0.6-2.4-2.3-1.8-3.8s2.3-2.4,3.8-1.8
		c0.9,0.3,1.5,1,1.8,1.8H10c0.6,0,1-0.4,1-1v-8c0-1.7,1.3-3,3-3h3v-3l5,4l-5,4v-3h-3C13.4,7.5,13,7.9,13,8.5z M4.9,19.5
		c0.6,0,1-0.4,1-1s-0.4-1-1-1s-1,0.4-1,1S4.3,19.5,4.9,19.5z"/>
</g>
</svg>
