<?xml version="1.0" encoding="utf-8"?>
<!-- Generator: Adobe Illustrator 25.4.1, SVG Export Plug-In . SVG Version: 6.00 Build 0)  -->
<svg version="1.1" id="Layer_1" xmlns="http://www.w3.org/2000/svg" xmlns:xlink="http://www.w3.org/1999/xlink" x="0px" y="0px"
	 viewBox="0 0 496.1 496.1" style="enable-background:new 0 0 496.1 496.1;" xml:space="preserve">
<style type="text/css">
	.st0{fill:#FFFFFF;}
</style>
<path class="st0" d="M248.1,494.1L248.1,494.1c-135.9,0-246-110.1-246-246l0,0c0-135.9,110.1-246,246-246l0,0
	c135.9,0,246,110.1,246,246l0,0C494.1,383.9,383.9,494.1,248.1,494.1z"/>
<g>
	<path d="M440.1,176.5c-1.4-2.1-3.9-3.4-6.5-3.3l-50.7,1.4c-3.5,0.1-6.4,2.5-7.2,5.9c-0.7,3.4,1,6.9,4.1,8.4l11.8,5.8l-140,99.8
		L156.3,208c-4.7-4.3-12-4.3-16.7-0.1l-80.7,72c-5.1,4.6-5.6,12.5-1,17.6c4.6,5.1,12.5,5.6,17.6,1l72.3-64.6l94.5,85.7
		c2.4,2.1,5.4,3.2,8.4,3.2c2.5,0,5.1-0.8,7.3-2.3l147.5-105.2l0.7,11.1c0.2,3.5,2.8,6.3,6.2,6.9c0.4,0.1,0.9,0.1,1.3,0.1
		c2.9,0,5.7-1.7,6.9-4.5l20.1-45.3C441.8,181.4,441.6,178.7,440.1,176.5z"/>
</g>
</svg>
