<?xml version="1.0" encoding="utf-8"?>
<!-- Generator: Adobe Illustrator 25.4.1, SVG Export Plug-In . SVG Version: 6.00 Build 0)  -->
<svg version="1.1" id="Capa_1" xmlns="http://www.w3.org/2000/svg" xmlns:xlink="http://www.w3.org/1999/xlink" x="0px" y="0px"
	 viewBox="0 0 297 297" style="enable-background:new 0 0 297 297;" xml:space="preserve">
<style type="text/css">
	.st0{fill:#FFFFFF;}
</style>
<g>
	<path class="st0" d="M252,0H45c-5.8,0-10.5,4.7-10.5,10.5v276.1c0,5.8,4.7,10.5,10.5,10.5H199c2.8,0,5.4-1.1,7.4-3.1l53-53
		c2-2,3.1-4.6,3.1-7.4V10.5C262.5,4.7,257.8,0,252,0z M55.4,20.9h186.1v202.2l-42.5,0c-5.8,0-10.5,4.7-10.5,10.5v42.5H55.4V20.9z
		 M209.5,261.3V244l17.3,0L209.5,261.3z"/>
	<path class="st0" d="M121.6,72.7h86.3c5.8,0,10.5-4.7,10.5-10.5s-4.7-10.5-10.5-10.5h-86.3c-5.8,0-10.5,4.7-10.5,10.5
		S115.8,72.7,121.6,72.7z"/>
	<path class="st0" d="M121.6,124.4h86.3c5.8,0,10.5-4.7,10.5-10.5c0-5.8-4.7-10.5-10.5-10.5h-86.3c-5.8,0-10.5,4.7-10.5,10.5
		C111.1,119.8,115.8,124.4,121.6,124.4z"/>
	<path class="st0" d="M87.1,51.8c-2.8,0-5.4,1.1-7.4,3.1s-3.1,4.6-3.1,7.4s1.1,5.4,3.1,7.4c1.9,1.9,4.6,3.1,7.4,3.1
		c2.8,0,5.4-1.1,7.4-3.1c2-1.9,3.1-4.6,3.1-7.4s-1.1-5.4-3.1-7.4C92.5,52.9,89.8,51.8,87.1,51.8z"/>
	<path class="st0" d="M87.1,103.5c-2.8,0-5.4,1.1-7.4,3.1c-1.9,1.9-3.1,4.6-3.1,7.4s1.1,5.4,3.1,7.4c1.9,1.9,4.6,3.1,7.4,3.1
		c2.8,0,5.4-1.1,7.4-3.1c2-1.9,3.1-4.6,3.1-7.4s-1.1-5.4-3.1-7.4C92.5,104.7,89.8,103.5,87.1,103.5z"/>
	<path class="st0" d="M207.8,176.2c5.8,0,10.5-4.7,10.5-10.5s-4.7-10.5-10.5-10.5h-86.3c-5.8,0-10.5,4.7-10.5,10.5
		s4.7,10.5,10.5,10.5L207.8,176.2L207.8,176.2z"/>
	<path class="st0" d="M87.1,155.3c-2.8,0-5.4,1.1-7.4,3.1s-3.1,4.6-3.1,7.4s1.1,5.4,3.1,7.4c1.9,1.9,4.6,3.1,7.4,3.1
		s5.4-1.1,7.4-3.1c1.9-1.9,3.1-4.6,3.1-7.4s-1.1-5.4-3.1-7.4C92.5,156.4,89.8,155.3,87.1,155.3z"/>
</g>
</svg>
