<svg xmlns="http://www.w3.org/2000/svg" viewBox="0 0 107.68 89.3"><defs><style>.cls-1{fill:#ffc13c;}</style></defs><g id="Layer_2" data-name="Layer 2"><g id="Capa_1" data-name="Capa 1"><path class="cls-1" d="M104.2,0H3.48A3.21,3.21,0,0,0,0,3V16.3a3.21,3.21,0,0,0,3.48,3H104.2a3.21,3.21,0,0,0,3.48-3V3A3.21,3.21,0,0,0,104.2,0Z"/><path class="cls-1" d="M104.2,35H3.48A3.21,3.21,0,0,0,0,38V51.3a3.21,3.21,0,0,0,3.48,3H104.2a3.21,3.21,0,0,0,3.48-3V38A3.21,3.21,0,0,0,104.2,35Z"/><path class="cls-1" d="M104.2,70H3.48A3.21,3.21,0,0,0,0,73V86.3a3.21,3.21,0,0,0,3.48,3H104.2a3.21,3.21,0,0,0,3.48-3V73A3.21,3.21,0,0,0,104.2,70Z"/></g></g></svg>