<?xml version="1.0" encoding="utf-8"?>
<!-- Generator: Adobe Illustrator 25.4.1, SVG Export Plug-In . SVG Version: 6.00 Build 0)  -->
<svg version="1.1" id="Layer_1" xmlns="http://www.w3.org/2000/svg" xmlns:xlink="http://www.w3.org/1999/xlink" x="0px" y="0px"
	 viewBox="0 0 496.1 496.1" style="enable-background:new 0 0 496.1 496.1;" xml:space="preserve">
<style type="text/css">
	.st0{fill:#FFFFFF;}
	.st1{fill:#F25022;}
	.st2{fill:#7FBA00;}
	.st3{fill:#00A4EF;}
	.st4{fill:#FFB900;}
</style>
<path class="st0" d="M248.1,494.1L248.1,494.1c-135.9,0-246-110.1-246-246l0,0c0-135.9,110.1-246,246-246l0,0
	c135.9,0,246,110.1,246,246l0,0C494.1,383.9,383.9,494.1,248.1,494.1z"/>
<path class="st1" d="M83.1,83.1V239H239V83.1H83.1z"/>
<path class="st2" d="M257.2,83.1V239h155.9V83.1H257.2z"/>
<path class="st3" d="M83.1,257.2v155.9H239V257.2H83.1z"/>
<path class="st4" d="M257.2,257.2v155.9h155.9V257.2H257.2z"/>
</svg>
