<?xml version="1.0" encoding="utf-8"?>
<!-- Generator: Adobe Illustrator 25.4.1, SVG Export Plug-In . SVG Version: 6.00 Build 0)  -->
<svg version="1.1" id="Layer_1" xmlns="http://www.w3.org/2000/svg" xmlns:xlink="http://www.w3.org/1999/xlink" x="0px" y="0px"
	 viewBox="0 0 496.1 496.1" style="enable-background:new 0 0 496.1 496.1;" xml:space="preserve">
<style type="text/css">
	.st0{fill:#FFFFFF;}
	.st1{fill:#B1060F;stroke:#000000;stroke-width:8.451812e-02;stroke-miterlimit:10;}
	.st2{fill:url(#path5719_00000088842687484875459050000016330833548190408126_);}
	.st3{fill:#E50914;}
</style>
<path class="st0" d="M248.1,494.1L248.1,494.1c-135.9,0-246-110.1-246-246l0,0c0-135.9,110.1-246,246-246l0,0
	c135.9,0,246,110.1,246,246l0,0C494.1,383.9,383.9,494.1,248.1,494.1z"/>
<g id="layer1" transform="translate(12.495 6.756)">
	<g id="g4182">
		<g id="g5747" transform="translate(81.631 113.771) scale(.29074)">
			<path id="path4155" class="st1" d="M637.1-241.3l-0.5,301l-0.5,301l-24.7-69.9v-0.2l-32.1,670.1c31.5,88.9,48.4,136.3,48.6,136.5
				c0.2,0.2,18.1,1.3,39.8,2.3c65.6,3.2,146.9,10.2,208.7,17.9c14.3,1.8,26.5,2.7,27.4,2s1.1-307.1,0.9-681l-0.5-679.8
				C904.1-241.3,637.1-241.3,637.1-241.3z"/>
			<path id="path4157" class="st1" d="M154.3-242.2v680.5c0,374.3,0.4,680.8,0.9,681.4s23.6-1.8,51.6-4.8c27.9-3,66.5-7,85.6-8.6
				c29.4-2.5,117.5-8.1,127.6-8.2c3,0,3.2-15.2,3.6-288.3l0.5-288.3l21.3,60.2c3.2,9.3,4.3,12.2,7.5,21.3L485-67
				c-6.8-19.2-3.2-9.1-10.9-31c-26.2-74-48.4-136.5-49.3-139.4l-1.8-5H154.3V-242.2z"/>
			<path id="path5715" class="st1" d="M637.1-241.3l-0.5,301l-0.5,301l-24.7-69.9v-0.2l-32.1,670.1c31.5,88.9,48.4,136.3,48.6,136.5
				c0.2,0.2,18.1,1.3,39.8,2.3c65.6,3.2,146.9,10.2,208.7,17.9c14.3,1.8,26.5,2.7,27.4,2s1.1-307.1,0.9-681l-0.5-679.8
				C904.1-241.3,637.1-241.3,637.1-241.3z"/>
			<path id="path5717" class="st1" d="M154.3-242.2v680.5c0,374.3,0.4,680.8,0.9,681.4s23.6-1.8,51.6-4.8c27.9-3,66.5-7,85.6-8.6
				c29.4-2.5,117.5-8.1,127.6-8.2c3,0,3.2-15.2,3.6-288.3l0.5-288.3l21.3,60.2c3.2,9.3,4.3,12.2,7.5,21.3L485-67
				c-6.8-19.2-3.2-9.1-10.9-31c-26.2-74-48.4-136.5-49.3-139.4l-1.8-5H154.3V-242.2z"/>
			
				<radialGradient id="path5719_00000149353359658167751630000014048598734117824910_" cx="674107.9375" cy="-16841.6699" r="660.6161" gradientTransform="matrix(5.977944e-03 -2.070134e-03 -7.582500e-02 -0.219 -4789.978 -1861.783)" gradientUnits="userSpaceOnUse">
				<stop  offset="0" style="stop-color:#000000"/>
				<stop  offset="1" style="stop-color:#000000;stop-opacity:0"/>
			</radialGradient>
			<path id="path5719" style="fill:url(#path5719_00000149353359658167751630000014048598734117824910_);" d="M154.3-242.2v382
				l269.1,713.8c0-16.3,0-25.3,0.2-43.9l0.5-288.3l21.3,60.2c118.2,335.4,181.9,515.3,182.2,515.6c0.2,0.2,18.1,1.3,39.8,2.3
				c65.6,3.2,146.9,10.2,208.7,17.9c14.3,1.8,26.5,2.7,27.4,2c0.5-0.5,0.9-150.7,0.9-362.6l-267.6-770l-0.2,72.9l-0.5,301
				l-24.7-69.9C587.1,222.6,571,176.9,473.7-98c-26.2-74-48.4-136.5-49.3-139.4l-1.8-5H154.3V-242.2z"/>
			<path id="path5721" class="st3" d="M154.3-242.2l269.6,764.1v-0.4l21.3,60.2c118.4,335.2,182,515.1,182.4,515.5
				c0.2,0.2,18.1,1.3,39.8,2.3c65.6,3.2,146.9,10.2,208.7,17.9c14.2,1.8,26.5,2.7,27.2,2L636,360.5v0.2l-24.7-69.9
				C587.1,222.6,571,176.9,473.7-98c-26.2-74-48.4-136.5-49.3-139.4l-1.8-5H288.5L154.3-242.2z"/>
		</g>
	</g>
</g>
</svg>
