<?xml version="1.0" encoding="utf-8"?>
<!-- Generator: Adobe Illustrator 25.4.1, SVG Export Plug-In . SVG Version: 6.00 Build 0)  -->
<svg version="1.1" id="Capa_1" xmlns="http://www.w3.org/2000/svg" xmlns:xlink="http://www.w3.org/1999/xlink" x="0px" y="0px"
	 viewBox="0 0 19 19" style="enable-background:new 0 0 19 19;" xml:space="preserve">
<style type="text/css">
	.st0{fill:#FFFFFF;}
</style>
<g>
	<g>
		<path class="st0" d="M17.9,3.1l-10.6,0c-0.6,0-1.1,0.5-1.1,1.1v0.5C6,4.6,5.7,4.6,5.3,4.6c-0.4,0-0.8,0.1-0.9,0.1
			c-0.1,0-0.2,0.1-0.2,0.1l-4,3.5C0.1,8.5,0,8.6,0,8.8l0,5.8c0,0.3,0.4,0.6,0.7,0.6c0,0,1.5,0.1,2.9,0.1c0.8,0,1.4,0,1.7-0.1
			c1.1-0.1,1.5-0.4,1.7-0.6c0.2-0.1,0.4-0.3,0.6-0.4c-0.2,0.6,0.1,1.2,0.6,1.5c0.2,0.1,0.4,0.1,0.6,0.1c0.3,0,0.7-0.1,0.9-0.4
			c0.1,0.2,0.3,0.3,0.4,0.4c0.2,0.1,0.4,0.1,0.6,0.1c0.5,0,0.9-0.3,1.1-0.7l0.8-1.6c0.2-0.3,0.2-0.6,0.1-1c0-0.1-0.1-0.2-0.1-0.3
			l5.2,0c0.6,0,1.1-0.5,1.1-1.1l0-6.9C19,3.6,18.5,3.1,17.9,3.1z M10.1,13l-0.8,1.6c-0.1,0.2-0.4,0.3-0.6,0.2
			c-0.2-0.1-0.3-0.4-0.2-0.6l0.7-1.4c0,0,0.2-0.5,0.6-0.6c0.1,0,0.1,0,0.2,0.1c0.1,0.1,0.2,0.2,0.2,0.3C10.1,12.8,10.1,12.9,10.1,13
			z M8.8,11.6L8,12.3h0c-0.5,0.4-1,0.9-1.7,1.4c-0.1,0-0.1,0-0.1,0.1c0,0-0.2,0.2-1,0.3c-0.2,0-0.7,0-1.6,0c-0.8,0-1.8,0-2.4,0l0-5
			l3.7-3.3c0.1,0,0.3,0,0.4,0c0.2,0,0.4,0,0.5,0.1V10c0,0.2,0.1,0.4,0.3,0.5c0,0,0,0,0.1,0v0l0.1,0c0.2,0.1,0.3,0.1,0.5,0
			c0.9-0.5,2.7-1.3,3.4-1.3c0,0,0.1,0,0.1,0c0,0,0,0,0,0C10.2,9.3,10.3,10,8.8,11.6z M12,13.1l-0.8,1.6C11,15,10.7,15.1,10.5,15
			c-0.2-0.1-0.3-0.4-0.2-0.6l0.8-1.6c0.1-0.2,0.2-0.3,0.4-0.3c0.1,0,0.1,0,0.2,0.1c0.1,0.1,0.2,0.2,0.2,0.3C12.1,12.9,12,13,12,13.1
			z M18.2,11.2c0,0.2-0.2,0.4-0.4,0.4l-7.5,0c0.6-0.8,1-1.4,1-2c0-0.5-0.1-0.8-0.2-0.9C11.1,8.4,10.8,8,10.1,8C9.3,8,7.9,8.6,7,9
			V7.4l11.2,0L18.2,11.2z M18.2,5.2l-11.3,0v-1c0-0.2,0.2-0.4,0.4-0.4l10.6,0c0.2,0,0.4,0.2,0.4,0.4L18.2,5.2z"/>
		<polygon class="st0" points="17.4,10.8 17.4,9.8 14.5,9.8 14.5,10.8 		"/>
	</g>
</g>
</svg>
