<?xml version="1.0" encoding="utf-8"?>
<!-- Generator: Adobe Illustrator 25.4.1, SVG Export Plug-In . SVG Version: 6.00 Build 0)  -->
<svg version="1.1" id="Capa_1" xmlns="http://www.w3.org/2000/svg" xmlns:xlink="http://www.w3.org/1999/xlink" x="0px" y="0px"
	 viewBox="0 0 784.3 784.3" style="enable-background:new 0 0 784.3 784.3;" xml:space="preserve">
<style type="text/css">
	.st0{fill:#FFFFFF;}
</style>
<g>
	<g>
		<path class="st0" d="M582,374.8L582,374.8C582,374.7,582,374.7,582,374.8c-0.3-1.8-0.7-3.5-1.2-5.1c-4.2-16-13.6-45-17.9-57.9
			c-0.5-2.3-1.2-4.5-2.2-6.5v-0.1l0,0c-2.6-5.6-6.9-10.4-12.2-13.5l0,0c-0.3-0.2-1-0.6-1.9-1c-0.4-0.2-0.7-0.4-1.1-0.5
			c-10.4-4.9-42.4-17.7-42.4-17.7l0,0c-16-6.9-32.6-12.9-49.5-18.9l0,0l0,0l0,0l0,0c-3,12.6-31.7,96.1-36.3,107.6l-3.6-77.6
			c1.2-1.8,2.1-3.9,3-5.9l12-23.7c-8.4,7-21.1,11.5-35.2,11.5c-13.8,0-26.2-4.3-34.6-11l11.7,23.2c1,2,1.8,4.1,3,5.9l-3.6,77.6
			c-4.6-11.6-33.3-95.1-36.3-107.6l0,0l0,0l0,0l0,0c-16.9,6-33.5,11.9-49.5,18.9l0,0c0,0-32,12.8-42.4,17.7
			c-0.4,0.2-0.7,0.3-1.1,0.5c-0.9,0.4-1.6,0.8-1.9,1l0,0c-5.3,3.2-9.6,7.9-12.2,13.5l0,0c0,0,0,0,0,0.1c-1,2.1-1.7,4.2-2.2,6.5
			c-4.3,13-13.8,42-17.9,57.9c-0.6,1.6-1,3.3-1.2,5.1l0,0l0,0c-0.2,1.5-0.4,3.1-0.4,4.7c0,17.1,13.8,30.9,30.9,30.9h29.5
			c42.2,0,84.5,0,126.7,0c0.6,0,1.1,0,1.7,0l0,0c0.6,0,1.1,0,1.7,0c42.2,0,84.5,0,126.7,0h29.5c17.1,0,30.9-13.8,30.9-30.9
			C582.5,377.9,582.3,376.3,582,374.8z"/>
		<path class="st0" d="M474.4,109.8c0-5.5,1.1-25.3,1.1-29.8c0-44.2-35.8-80-80-80l0,0l0,0h-0.1h-0.1l0,0l0,0c-0.5,0-1,0-1.5,0
			s-1,0-1.5,0l0,0l0,0h-0.1H392l0,0l0,0c-44.2,0-80,35.8-80,80c0,4.5,1.1,24.3,1.1,29.8c-2,0.1-19.8-4.2-17.9,17.2
			c4.1,45.5,21.4,36.7,21.9,36.7c8.5,27.4,21.8,44.9,34.8,56.1c20.3,17.4,39.9,19.3,40.3,19.3c0.6,0,1.1,0,1.7,0l0,0l0,0
			c0.5,0,1.1,0,1.7,0c0.3,0,19.9-1.9,40-19.1c13.1-11.1,26.4-28.7,35-56.3c0.5,0,17.9,8.8,21.9-36.7
			C494.1,105.6,476.2,109.9,474.4,109.8z"/>
	</g>
	<circle class="st0" cx="164.1" cy="697.3" r="85.1"/>
	<circle class="st0" cx="391.8" cy="699.2" r="85.1"/>
	<circle class="st0" cx="620.2" cy="699.2" r="85.1"/>
	<path class="st0" d="M231.8,536.2h131v60h58v-60h131c32.5,0,59,26.5,59,59h58c0-64.5-52.5-117-117-117h-131v-52h-58v52h-131
		c-64.5,0-117,52.5-117,117h58C172.8,562.7,199.1,536.2,231.8,536.2z"/>
</g>
</svg>
