<?xml version="1.0" encoding="utf-8"?>
<!-- Generator: Adobe Illustrator 25.4.1, SVG Export Plug-In . SVG Version: 6.00 Build 0)  -->
<svg version="1.1" id="Capa_1" xmlns="http://www.w3.org/2000/svg" xmlns:xlink="http://www.w3.org/1999/xlink" x="0px" y="0px"
	 viewBox="0 0 296.3 296.3" style="enable-background:new 0 0 296.3 296.3;" xml:space="preserve">
<style type="text/css">
	.st0{fill:#707070;}
	.st1{fill:#FFC13C;}
</style>
<g>
	<path class="st0" d="M282.4,167.2c-4.8-28.7-26.1-31.2-33.6-31.2c-1.6,0-2.5,0.1-2.5,0.1c-6.5-12.9-16.2-16.2-24.3-16.2
		c-8.1,0-14.6,3.2-14.6,3.2c-6.5-12.9-16.4-16.2-24.6-16.2c-8.2,0-14.8,3.2-14.8,3.2V76c0-13-9.7-19.5-19.5-19.5
		C138.7,56.5,129,63,129,76c0,26,0,86.1,0,86.1c-45,11-4,78.5,9,98.9v24.9c0,5.5,5.5,10.5,11,10.5h103c5.5,0,9-5,9-10.5v-23.7
		C285,224.7,286.5,191.9,282.4,167.2z"/>
	<circle class="st1" cx="148.2" cy="19.6" r="19.6"/>
	<circle class="st1" cx="89.4" cy="76.1" r="19.6"/>
	<circle class="st1" cx="89.4" cy="19.6" r="19.6"/>
	<circle class="st1" cx="31.7" cy="76.1" r="19.6"/>
	<circle class="st1" cx="31.7" cy="19.6" r="19.6"/>
	<circle class="st1" cx="89.4" cy="132.5" r="19.6"/>
	<circle class="st1" cx="31.7" cy="132.5" r="19.6"/>
</g>
</svg>
