<?xml version="1.0" encoding="utf-8"?>
<!-- Generator: Adobe Illustrator 25.4.1, SVG Export Plug-In . SVG Version: 6.00 Build 0)  -->
<svg version="1.1" id="Layer_1" xmlns="http://www.w3.org/2000/svg" xmlns:xlink="http://www.w3.org/1999/xlink" x="0px" y="0px"
	 viewBox="0 0 48 48" style="enable-background:new 0 0 48 48;" xml:space="preserve">
<style type="text/css">
	.st0{fill:none;stroke:#FFFFFF;stroke-width:4;stroke-linecap:round;}
	.st1{fill:none;stroke:#FFFFFF;stroke-width:4;stroke-linecap:round;stroke-linejoin:round;}
	.st2{fill:#FFFFFF;stroke:#FFFFFF;stroke-miterlimit:10;}
</style>
<path class="st0" d="M38.1,38.1C41.8,34.5,44,29.5,44,24c0-5.5-2.2-10.5-5.9-14.1"/>
<path class="st0" d="M9.9,9.9C6.2,13.5,4,18.5,4,24c0,5.5,2.2,10.5,5.9,14.1"/>
<path class="st0" d="M15.1,14.1c-2.5,2.5-4.1,6-4.1,9.9s1.6,7.4,4.1,9.9"/>
<path class="st0" d="M32.9,33.9c2.5-2.5,4.1-6,4.1-9.9s-1.6-7.4-4.1-9.9"/>
<path class="st1" d="M24,44V34"/>
<path class="st1" d="M24,4v10"/>
<circle class="st2" cx="24" cy="24" r="3"/>
</svg>
