<?xml version="1.0" encoding="utf-8"?>
<!-- Generator: Adobe Illustrator 25.4.1, SVG Export Plug-In . SVG Version: 6.00 Build 0)  -->
<svg version="1.1" id="Layer_1" xmlns="http://www.w3.org/2000/svg" xmlns:xlink="http://www.w3.org/1999/xlink" x="0px" y="0px"
	 viewBox="0 0 512.1 512.1" style="enable-background:new 0 0 512.1 512.1;" xml:space="preserve">
<style type="text/css">
	.st0{fill:#FFFFFF;}
</style>
<g>
	<g>
		<g>
			<path class="st0" d="M188.6,205.5C170.2,189,160,167.2,160,144.1s10.1-44.9,28.5-61.3c4.5-3.8,4.9-10.6,1.1-15s-10.6-4.9-15-1.1
				c-0.1,0.1-0.2,0.1-0.2,0.2c-22.9,20.6-35.5,48-35.5,77.2s12.6,56.7,35.5,77.2c4.4,4.1,11.1,3.7,15-0.5c4.1-4.4,3.7-11.1-0.5-15
				C188.7,205.6,188.6,205.6,188.6,205.5z"/>
			<path class="st0" d="M337.9,66.8c-4.5-3.8-11.2-3.4-15,1.1c-3.7,4.4-3.4,10.9,0.7,14.8c18.3,16.4,28.5,38.2,28.5,61.3
				s-10.1,44.9-28.5,61.4c-4.5,3.8-4.9,10.6-1.1,15c3.8,4.5,10.6,4.9,15,1.1c0.1-0.1,0.2-0.1,0.2-0.2c22.9-20.6,35.5-48,35.5-77.2
				S360.8,87.4,337.9,66.8z"/>
			<path class="st0" d="M117.4,144.1c0-35.3,14.2-69.1,39.5-93.8c4.1-4.3,3.8-11.1-0.4-15c-4.1-3.8-10.3-3.8-14.5-0.1
				c-60.2,58.8-61.2,155.2-2.5,215.5c0.9,0.9,1.6,1.6,2.5,2.5c4.4,3.9,11.1,3.6,15-0.7c3.7-4.2,3.6-10.5-0.1-14.5
				C131.6,213.2,117.4,179.4,117.4,144.1z"/>
			<path class="st0" d="M372.6,37.6c-0.9-0.9-1.6-1.6-2.5-2.5c-4.4-3.9-11.1-3.6-15,0.7c-3.7,4.2-3.6,10.5,0.1,14.5
				C407,101,408,184,357.5,235.7c-0.7,0.7-1.5,1.5-2.2,2.2c-4.4,3.9-4.7,10.7-0.7,15c3.9,4.4,10.7,4.7,15,0.7
				c0.2-0.2,0.4-0.4,0.6-0.6C430.3,194.3,431.4,97.9,372.6,37.6z"/>
			<path class="st0" d="M256,85.4c-29.4,0.1-53.2,24-53.2,53.4c0.1,25.3,17.9,47,42.8,52.2c-0.1,0.3-0.2,0.7-0.2,1.1v309.3
				c0,5.9,4.8,10.7,10.7,10.7s10.7-4.8,10.7-10.7V192.1c0-0.3-0.1-0.7-0.2-1.1c28.9-5.9,47.5-34,41.7-62.8
				C303.1,103.3,281.3,85.5,256,85.4z M256,170.7c-17.7,0-32-14.3-32-32s14.3-32,32-32s32,14.3,32,32S273.7,170.7,256,170.7z"/>
			<path class="st0" d="M413.1,3.3C409-1,402.2-1.1,398,3.1s-4.4,10.9-0.3,15c67.1,69.4,67.1,182.4,0,251.8c-4.1,4.3-3.9,11,0.2,15
				c4.3,4.1,11,3.9,15-0.2C488,207.2,488,80.9,413.1,3.3z"/>
			<path class="st0" d="M114.4,18.2c4.2-4.3,4.1-11-0.2-15.1c-4.3-4.2-11-3.9-15.1,0.2c-75,77.7-75,203.8,0,281.5
				c4.1,4.3,10.9,4.4,15,0.3c4.2-4.1,4.4-10.9,0.3-15C47.3,200.6,47.3,87.5,114.4,18.2z"/>
		</g>
	</g>
</g>
</svg>
