<?xml version="1.0" encoding="utf-8"?>
<!-- Generator: Adobe Illustrator 25.4.1, SVG Export Plug-In . SVG Version: 6.00 Build 0)  -->
<svg version="1.1" id="Capa_1" xmlns="http://www.w3.org/2000/svg" xmlns:xlink="http://www.w3.org/1999/xlink" x="0px" y="0px"
	 viewBox="0 0 386.7 386.7" style="enable-background:new 0 0 386.7 386.7;" xml:space="preserve">
<style type="text/css">
	.st0{fill:#FFFFFF;}
</style>
<g>
	<path class="st0" d="M385.4,213.1c-1.4-2.1-3.9-3.4-6.5-3.3l-50.7,1.4c-3.5,0.1-6.4,2.5-7.2,5.9c-0.7,3.4,1,6.8,4.1,8.4l11.8,5.8
		L197,331l-95.4-86.5c-4.7-4.3-12-4.3-16.7-0.1l-80.7,72c-5.1,4.6-5.6,12.5-1,17.6s12.5,5.6,17.6,1l72.3-64.6l94.5,85.7
		c2.4,2.1,5.4,3.2,8.4,3.2c2.5,0,5.1-0.8,7.3-2.3l147.5-105l0.7,11.1c0.2,3.5,2.8,6.3,6.2,6.9c0.4,0.1,0.9,0.1,1.3,0.1
		c2.9,0,5.7-1.7,6.9-4.5l20.1-45.3C387.1,218,386.8,215.2,385.4,213.1z"/>
</g>
</svg>
