<?xml version="1.0" encoding="utf-8"?>
<!-- Generator: Adobe Illustrator 25.4.1, SVG Export Plug-In . SVG Version: 6.00 Build 0)  -->
<svg version="1.1" id="Layer_1" xmlns="http://www.w3.org/2000/svg" xmlns:xlink="http://www.w3.org/1999/xlink" x="0px" y="0px"
	 viewBox="0 0 330 330" style="enable-background:new 0 0 330 330;" xml:space="preserve">
<style type="text/css">
	.st0{fill:#FFFFFF;}
</style>
<g id="XMLID_223_">
	<path id="XMLID_224_" class="st0" d="M225.8,89.2H104.2c-8.3,0-15,6.7-15,15v121.5c0,8.3,6.7,15,15,15h121.5c8.3,0,15-6.7,15-15
		V104.2C240.8,96,234,89.2,225.8,89.2z"/>
	<path id="XMLID_225_" class="st0" d="M165,0C74,0,0,74,0,165s74,165,165,165s165-74,165-165S256,0,165,0z M165,300
		c-74.4,0-135-60.6-135-135S90.6,30,165,30s135,60.6,135,135S239.4,300,165,300z"/>
</g>
</svg>
