<?xml version="1.0" encoding="utf-8"?>
<!-- Generator: Adobe Illustrator 25.4.1, SVG Export Plug-In . SVG Version: 6.00 Build 0)  -->
<svg version="1.1" id="Layer_1" xmlns="http://www.w3.org/2000/svg" xmlns:xlink="http://www.w3.org/1999/xlink" x="0px" y="0px"
	 viewBox="0 0 496.1 496.1" style="enable-background:new 0 0 496.1 496.1;" xml:space="preserve">
<style type="text/css">
	.st0{fill:#FFFFFF;}
	.st1{fill:#0E4595;}
</style>
<path class="st0" d="M248.1,492.4L248.1,492.4c-135.9,0-246-110.1-246-246v0c0-135.9,110.1-246,246-246h0c135.9,0,246,110.1,246,246
	v0C494.1,382.2,383.9,492.4,248.1,492.4z"/>
<g id="visa">
	<path id="Shape" class="st1" d="M178,312.8l21.9-128.3h35L213,312.8H178L178,312.8z"/>
	<path id="path13" class="st1" d="M339.3,187.2c-6.9-2.6-17.8-5.4-31.3-5.4c-34.6,0-58.9,17.4-59.1,42.3
		c-0.2,18.4,17.4,28.7,30.6,34.9c13.6,6.3,18.2,10.3,18.1,15.9c-0.1,8.6-10.9,12.5-20.9,12.5c-14,0-21.4-1.9-32.9-6.7l-4.5-2
		l-4.9,28.7c8.2,3.6,23.3,6.7,38.9,6.8c36.8,0,60.6-17.2,60.9-43.8c0.1-14.6-9.2-25.7-29.4-34.9c-12.2-5.9-19.7-9.9-19.6-15.9
		c0-5.3,6.3-11,20-11c11.4-0.2,19.7,2.3,26.2,4.9l3.1,1.5L339.3,187.2"/>
	<path id="Path" class="st1" d="M429.3,184.5h-27c-8.4,0-14.6,2.3-18.3,10.6L332,312.7h36.7c0,0,6-15.8,7.4-19.3
		c4,0,39.7,0.1,44.8,0.1c1,4.5,4.3,19.2,4.3,19.2h32.4L429.3,184.5L429.3,184.5z M386.4,267.3c2.9-7.4,13.9-35.9,13.9-35.9
		c-0.2,0.3,2.9-7.4,4.6-12.2l2.4,11.1c0,0,6.7,30.6,8.1,37L386.4,267.3L386.4,267.3L386.4,267.3z"/>
	<path id="path16" class="st1" d="M25.8,184.5l-0.4,2.7c13.8,3.3,26.2,8.2,37,14.2l31,111.2l37,0l55-128h-37L114.1,272l-3.6-17.8
		c-0.2-0.5-0.4-1.1-0.5-1.7L98,195.3c-2.1-8.1-8.3-10.5-15.8-10.8H25.8z"/>
</g>
</svg>
