<?xml version="1.0" encoding="utf-8"?>
<!-- Generator: Adobe Illustrator 25.4.1, SVG Export Plug-In . SVG Version: 6.00 Build 0)  -->
<svg version="1.1" id="Capa_1" xmlns="http://www.w3.org/2000/svg" xmlns:xlink="http://www.w3.org/1999/xlink" x="0px" y="0px"
	 viewBox="0 0 60 60" style="enable-background:new 0 0 60 60;" xml:space="preserve">
<style type="text/css">
	.st0{fill:#FFFFFF;}
</style>
<g>
	<path class="st0" d="M5.1,12.5c0.1,0,0.3,0,0.4-0.1C6,12.2,6.6,12,7.2,11.9c0.5-0.1,0.9-0.6,0.9-1.1C7.9,10.3,7.5,9.9,6.9,10
		c-0.8,0.1-1.5,0.3-2.2,0.6c-0.5,0.2-0.7,0.8-0.5,1.3C4.4,12.3,4.7,12.5,5.1,12.5z"/>
	<path class="st0" d="M11,11.9h2c0.6,0,1-0.4,1-1s-0.4-1-1-1h-2c-0.6,0-1,0.4-1,1S10.5,11.9,11,11.9z"/>
	<path class="st0" d="M42.9,5.9l-5.4-5.4c-0.4-0.4-1.2-0.4-1.6,0l-2,2l-2-2c-0.4-0.4-1.2-0.4-1.6,0l-5.4,5.4H8c-4.4,0-8,3.6-8,8v4
		c0-0.4,0.3-0.8,0.6-0.9c0.4,0.9,0.9,1.7,1.6,2.4c0,0.1,0,0.1,0,0.2c0.2,0.5-0.1,1.1-0.7,1.2c-0.1,0-0.2,0-0.3,0
		c-0.4,0-0.8-0.3-1-0.7C0.1,19.4,0,18.6,0,17.9v30c0-0.6,0.4-1,1-1s1,0.4,1,1c0,0.6,0.1,1.1,0.2,1.7c0.2,0.5-0.1,1.1-0.7,1.2
		c-0.1,0-0.2,0-0.3,0c-0.4,0-0.8-0.3-1-0.7C0.1,49.4,0,48.6,0,47.9v4.8c0,3.9,3.2,7.2,7.2,7.2H60v-5c0,0.6-0.4,1-1,1h-2
		c-0.6,0-1-0.4-1-1s0.4-1,1-1h2c0.6,0,1,0.4,1,1v-6.5H47c-5.2,0-9.5-4.3-9.5-9.5s4.3-9.5,9.5-9.5h13v-4.5c0,0.6-0.4,1-1,1h-2
		c-0.6,0-1-0.4-1-1s0.4-1,1-1h2c0.6,0,1,0.4,1,1v-3v-2v-14C60,5.9,42.9,5.9,42.9,5.9z M51,53.9h2c0.6,0,1,0.4,1,1s-0.4,1-1,1h-2
		c-0.6,0-1-0.4-1-1S50.4,53.9,51,53.9z M45,53.9h2c0.6,0,1,0.4,1,1s-0.4,1-1,1h-2c-0.6,0-1-0.4-1-1S44.4,53.9,45,53.9z M39,53.9h2
		c0.6,0,1,0.4,1,1s-0.4,1-1,1h-2c-0.6,0-1-0.4-1-1S38.4,53.9,39,53.9z M36.7,2.5l3.4,3.4l14,14h-5.4L37.5,8.6
		c-0.2-0.2-0.5-0.3-0.8-0.3l-0.5,0L24.7,19.9h-5.4l16-16l0,0L36.7,2.5z M31,2.5l1.4,1.4l-16,16h-2.9l14-14L31,2.5z M8,7.9h14.8
		L20,10.7c-0.1-0.4-0.5-0.8-1-0.8h-2c-0.6,0-1,0.4-1,1s0.4,1,1,1h1.7l-8,8H8c-2.6,0-4.8-1.7-5.6-4C2.5,15.4,2.7,15,3,14.6
		c0.3-0.5,0.2-1.1-0.3-1.4c-0.2-0.1-0.4-0.2-0.6-0.1C2.4,10.2,5,7.9,8,7.9z M6,54.7c-0.2,0.4-0.5,0.6-0.9,0.6c-0.1,0-0.3,0-0.4-0.1
		c-0.7-0.3-1.3-0.7-1.9-1.2c-0.4-0.4-0.5-1-0.1-1.4c0.4-0.4,1-0.5,1.4-0.1c0.4,0.4,0.9,0.7,1.4,0.9C6,53.6,6.2,54.2,6,54.7z M6,24.7
		c-0.2,0.4-0.5,0.6-0.9,0.6c-0.1,0-0.3,0-0.4-0.1c-0.7-0.3-1.3-0.7-1.9-1.2c-0.4-0.4-0.5-1-0.1-1.4c0.4-0.4,1-0.5,1.4-0.1
		c0.4,0.4,0.9,0.7,1.4,0.9C6,23.6,6.2,24.2,6,24.7z M11,55.9H9c-0.6,0-1-0.4-1-1s0.4-1,1-1h2c0.6,0,1,0.4,1,1S11.6,55.9,11,55.9z
		 M11,25.9H9c-0.6,0-1-0.4-1-1s0.4-1,1-1h2c0.6,0,1,0.4,1,1S11.6,25.9,11,25.9z M17,55.9h-2c-0.6,0-1-0.4-1-1s0.4-1,1-1h2
		c0.6,0,1,0.4,1,1S17.6,55.9,17,55.9z M17,25.9h-2c-0.6,0-1-0.4-1-1s0.4-1,1-1h2c0.6,0,1,0.4,1,1S17.6,25.9,17,25.9z M23,55.9h-2
		c-0.6,0-1-0.4-1-1s0.4-1,1-1h2c0.6,0,1,0.4,1,1S23.6,55.9,23,55.9z M23,25.9h-2c-0.6,0-1-0.4-1-1s0.4-1,1-1h2c0.6,0,1,0.4,1,1
		S23.6,25.9,23,25.9z M29,55.9h-2c-0.6,0-1-0.4-1-1s0.4-1,1-1h2c0.6,0,1,0.4,1,1S29.6,55.9,29,55.9z M29,25.9h-2c-0.6,0-1-0.4-1-1
		s0.4-1,1-1h2c0.6,0,1,0.4,1,1S29.6,25.9,29,25.9z M35,55.9h-2c-0.6,0-1-0.4-1-1s0.4-1,1-1h2c0.6,0,1,0.4,1,1S35.6,55.9,35,55.9z
		 M35,25.9h-2c-0.6,0-1-0.4-1-1s0.4-1,1-1h2c0.6,0,1,0.4,1,1S35.6,25.9,35,25.9z M41,25.9h-2c-0.6,0-1-0.4-1-1s0.4-1,1-1h2
		c0.6,0,1,0.4,1,1S41.6,25.9,41,25.9z M47,25.9h-2c-0.6,0-1-0.4-1-1s0.4-1,1-1h2c0.6,0,1,0.4,1,1S47.6,25.9,47,25.9z M53,25.9h-2
		c-0.6,0-1-0.4-1-1s0.4-1,1-1h2c0.6,0,1,0.4,1,1S53.6,25.9,53,25.9z M56.9,19.9l-8-8H49c0.6,0,1-0.4,1-1s-0.4-1-1-1h-2c0,0,0,0,0,0
		l-2-2H58v12H56.9z"/>
	<path class="st0" d="M55,9.9h-2c-0.6,0-1,0.4-1,1s0.4,1,1,1h2c0.6,0,1-0.4,1-1S55.6,9.9,55,9.9z"/>
	<path class="st0" d="M40,38.9c0,3.9,3.1,7,7,7h13v-14H47C43.1,31.9,40,35,40,38.9z M52,38.9c0,2.2-1.8,4-4,4s-4-1.8-4-4s1.8-4,4-4
		S52,36.7,52,38.9z"/>
</g>
</svg>
